<?xml version="1.0" standalone="no"?>
<!DOCTYPE svg PUBLIC "-//W3C//DTD SVG 20010904//EN"
        "http://www.w3.org/TR/2001/REC-SVG-20010904/DTD/svg10.dtd">
<svg version="1.0" xmlns="http://www.w3.org/2000/svg"
     width="640.000000pt" height="640.000000pt" viewBox="0 0 640.000000 640.000000"
     preserveAspectRatio="xMidYMid meet">

    <g transform="translate(0.000000,640.000000) scale(0.100000,-0.100000)"
       fill="#000000" stroke="none">
        <path d="M0 6056 l0 -344 67 -38 c118 -65 214 -130 206 -138 -5 -4 1 -6 12 -4
14 2 20 -2 19 -14 -1 -11 4 -14 14 -11 9 4 13 2 9 -4 -3 -5 5 -16 18 -23 14
-7 25 -17 25 -21 0 -4 -44 17 -97 47 -156 86 -262 139 -268 132 -8 -8 24 -71
42 -81 7 -5 11 -12 8 -18 -4 -5 -2 -9 4 -9 6 0 8 -7 5 -15 -4 -8 -1 -22 6 -30
7 -8 10 -22 6 -30 -4 -10 -2 -14 5 -9 13 7 10 -14 -12 -99 -9 -32 -17 -46 -26
-43 -7 3 -13 -1 -13 -8 0 -7 -7 -19 -15 -26 -13 -11 -15 -128 -15 -945 l0
-932 41 4 c40 5 42 4 35 -18 -19 -60 -47 -182 -61 -262 -12 -68 -15 -175 -15
-490 0 -344 4 -439 23 -541 1 -6 -4 -10 -11 -9 -9 2 -12 -21 -10 -95 2 -89 2
-91 5 -24 5 100 23 90 49 -29 11 -52 28 -120 38 -152 13 -46 16 -79 11 -160
-8 -128 -11 -140 -37 -131 -11 3 -31 0 -44 -7 -22 -11 -24 -18 -24 -93 0 -53
4 -76 9 -67 8 12 12 12 25 2 24 -20 19 -41 -9 -41 l-25 0 0 -469 c0 -366 3
-470 13 -474 9 -4 9 -6 0 -6 -10 -1 -13 -41 -13 -166 l0 -165 83 0 c56 0 77 3
67 10 -13 8 -12 10 3 10 9 0 17 -4 17 -10 0 -17 133 -12 158 6 20 14 22 14 22
0 0 -10 9 -16 25 -16 20 0 25 5 25 26 0 14 4 22 10 19 5 -3 19 -1 30 5 15 8
20 8 20 -2 0 -9 3 -10 8 -2 7 11 46 34 58 34 7 0 1 -34 -11 -62 -6 -15 -2 -18
29 -18 35 0 36 1 36 40 0 22 11 63 24 92 14 29 29 67 36 83 6 17 20 35 32 40
21 10 26 17 47 65 7 18 8 -15 4 -124 l-6 -148 24 7 c13 4 25 8 25 9 1 0 7 87
13 191 7 105 14 215 17 245 3 30 6 78 6 105 -1 42 1 46 10 28 6 -12 19 -24 30
-27 14 -3 19 -10 15 -20 -4 -9 -3 -15 1 -15 4 1 22 -5 40 -12 l33 -14 -6 -155
c-3 -85 -8 -179 -10 -207 -3 -54 2 -61 34 -43 16 8 19 31 25 172 7 140 11 215
15 252 1 4 10 6 21 3 11 -3 20 -2 20 2 0 5 21 2 48 -4 l47 -12 -3 -154 c-2
-85 -6 -162 -9 -172 -4 -15 0 -18 24 -15 21 2 29 9 31 28 5 49 13 71 22 65 10
-6 90 26 90 36 0 4 -7 9 -15 13 -8 3 -15 1 -15 -4 0 -6 -7 -10 -15 -10 -9 0
-12 6 -9 15 4 8 1 15 -5 15 -6 0 -11 -4 -11 -10 0 -5 -7 -7 -15 -4 -12 5 -15
25 -15 95 0 49 4 89 8 89 5 0 7 -39 6 -87 -1 -66 1 -83 8 -66 9 18 13 20 29
10 15 -9 21 -8 32 7 10 13 16 15 21 8 4 -7 13 -12 19 -12 7 0 6 4 -3 10 -18
11 -8 23 13 14 13 -5 15 -18 12 -70 -2 -54 -1 -64 13 -64 32 0 40 16 47 95 3
44 8 82 10 84 10 9 56 2 85 -13 18 -9 39 -16 47 -16 9 0 13 -13 13 -41 0 -33
3 -40 16 -35 9 3 12 2 9 -5 -4 -5 -12 -8 -18 -6 -7 2 -17 -2 -24 -8 -6 -7 -48
-25 -92 -40 -76 -27 -112 -54 -73 -56 10 0 12 -3 5 -6 -7 -2 -13 -13 -13 -24
0 -10 -4 -19 -10 -19 -5 0 -10 -4 -10 -8 0 -5 17 -8 37 -8 23 1 38 -4 38 -11
0 -6 3 -15 8 -19 4 -4 7 0 7 10 0 9 4 14 10 11 5 -3 29 3 52 14 l43 19 3 -63
c3 -64 3 -64 27 -53 21 9 25 18 26 57 0 47 8 40 23 -21 5 -21 3 -28 -8 -28 -8
0 -16 -3 -18 -7 -1 -5 -25 -19 -53 -32 l-50 -23 24 -19 c32 -26 69 -25 82 3
l10 23 -5 -22 -4 -23 970 0 971 0 -6 35 c-5 32 -3 35 18 35 25 0 30 -29 6 -44
-11 -7 -11 -10 0 -17 8 -5 425 -9 936 -9 785 1 928 3 964 15 49 18 52 18 45 6
-3 -5 0 -11 8 -14 8 -3 16 2 19 14 7 25 27 25 27 -1 0 -18 7 -20 61 -20 l61 0
-6 35 c-6 30 -4 35 12 35 11 0 23 -7 26 -16 9 -23 8 -27 -8 -21 -10 4 -12 0
-9 -14 8 -28 93 -28 100 0 3 11 11 22 19 25 8 3 14 13 14 23 -1 17 -1 17 -11
1 -5 -10 -15 -18 -21 -18 -7 0 -7 4 1 14 8 9 8 21 1 40 -13 35 1 33 36 -6 36
-40 41 -74 13 -83 -11 -4 -18 -9 -16 -12 12 -11 48 19 43 35 -3 9 5 5 18 -10
l25 -28 166 0 165 0 -20 40 c-11 21 -29 47 -39 57 -10 10 -21 27 -23 38 -2 11
-8 20 -14 20 -11 0 -84 61 -84 70 0 3 -8 18 -17 32 -15 23 -18 61 -20 319 -1
162 1 295 5 297 4 2 72 -7 152 -19 80 -13 157 -23 173 -24 15 0 27 -3 28 -7 0
-5 2 -75 5 -158 2 -82 6 -160 9 -172 3 -13 2 -23 -2 -23 -11 0 -4 -233 8 -245
10 -10 12 1819 2 1928 -4 40 -10 57 -20 57 -7 0 -16 -7 -19 -15 -4 -8 -10 -15
-14 -15 -11 0 -31 58 -22 63 7 4 12 4 60 -7 18 -4 23 -1 20 12 -2 9 -9 18 -16
18 -6 1 -19 2 -27 3 -13 1 -13 4 -3 21 10 15 10 22 0 32 -18 18 -15 28 8 28
11 0 20 5 20 11 0 5 4 7 10 4 11 -7 7 45 -5 65 -5 9 -4 11 3 6 9 -5 12 14 12
71 0 54 -3 73 -10 63 -8 -13 -10 -12 -10 3 0 9 4 17 10 17 6 0 10 655 10 1905
l0 1905 -3200 0 -3200 0 0 -344z m2683 197 c-7 -2 -19 -2 -25 0 -7 3 -2 5 12
5 14 0 19 -2 13 -5z m2 -183 c-3 -5 -12 -10 -18 -10 -7 0 -6 4 3 10 19 12 23
12 15 0z m-17 -56 c0 -17 -3 -22 -8 -13 -5 6 -6 18 -3 26 8 19 11 16 11 -13z
m77 -64 c-2 -4 0 -21 5 -39 5 -19 5 -31 -1 -31 -5 0 -9 -5 -9 -11 0 -5 4 -8 9
-5 4 3 11 -26 13 -65 3 -42 11 -75 18 -79 14 -9 6 -60 -10 -60 -6 0 -10 -4
-10 -10 0 -5 7 -10 15 -10 13 0 14 -95 14 -752 l0 -752 65 -33 c61 -31 89 -53
67 -53 -12 0 -342 170 -372 192 -13 10 21 -3 76 -28 124 -57 135 -61 113 -43
-9 8 -42 52 -73 99 -56 84 -56 85 -41 115 33 65 32 75 -42 218 -38 75 -67 138
-64 142 3 3 -2 5 -12 5 -9 0 -15 4 -12 8 3 5 -5 39 -18 75 -18 51 -20 67 -10
67 7 0 11 6 9 13 -11 31 -13 97 -3 97 7 0 7 4 1 13 -12 15 -14 87 -2 87 5 0 9
9 9 20 0 11 -4 20 -10 20 -5 0 -10 5 -10 11 0 5 5 7 10 4 6 -3 10 1 10 9 0 9
-4 16 -10 16 -11 0 -1 32 13 41 6 4 6 18 -1 38 -10 29 -9 31 11 31 21 1 21 1
-3 13 -25 12 -39 37 -20 37 5 0 10 7 10 15 0 10 10 15 31 15 19 0 28 4 23 11
-3 6 -17 9 -31 6 -13 -2 -21 -2 -18 1 2 3 0 11 -6 19 -9 10 -8 13 2 13 8 0 14
10 15 23 8 169 13 210 23 217 18 10 18 15 2 33 -12 15 -11 17 4 17 14 0 15 3
6 14 -9 10 -8 15 3 19 9 4 12 15 9 31 -3 14 0 33 7 41 10 12 10 15 0 15 -8 0
-10 3 -6 7 4 5 14 0 21 -11 14 -18 14 -18 14 0 -1 44 8 59 32 56 20 -3 21 -2
11 11 -10 11 -10 17 -2 22 7 4 10 16 7 26 -9 32 15 34 41 3 13 -16 20 -20 14
-10 -7 13 -6 25 1 37 10 16 12 16 38 -4 16 -11 26 -23 24 -27z m3565 -1096 c0
-2 -9 -4 -21 -4 -11 0 -18 4 -14 10 5 8 35 3 35 -6z m-4362 -190 c-7 -7 -25
-16 -40 -19 -22 -6 -28 -4 -28 9 0 14 11 21 33 17 4 0 7 3 7 8 0 5 9 7 21 4
17 -5 18 -8 7 -19z m589 -147 c11 4 14 2 9 -5 -3 -6 0 -15 9 -19 14 -8 17 -27
12 -86 -2 -23 -4 -25 -13 -12 -10 14 -12 14 -18 0 -8 -22 -25 -18 -19 5 4 14
0 20 -12 20 -10 0 -15 -5 -12 -13 3 -8 -1 -14 -9 -14 -14 0 -10 11 13 38 8 9
16 31 18 49 4 28 3 30 -12 18 -15 -12 -15 -11 -2 10 8 12 15 18 17 13 2 -6 10
-7 19 -4z m473 -138 c0 -5 4 -8 10 -4 14 8 80 -22 101 -47 11 -11 19 -16 19
-10 0 22 20 12 21 -10 1 -17 2 -19 6 -5 6 22 14 22 39 -1 10 -10 28 -24 39
-31 19 -12 19 -12 -2 -8 -13 3 -23 1 -23 -4 0 -5 8 -9 18 -10 12 0 13 -2 3 -6
-10 -4 -10 -7 -1 -13 18 -11 21 -90 3 -97 -9 -4 -13 -21 -11 -57 1 -28 3 -45
6 -38 8 25 21 11 20 -24 -1 -23 -8 -38 -20 -45 -19 -10 -16 -29 5 -29 7 0 6 4
-3 10 -8 5 -12 10 -8 10 3 0 12 2 20 5 9 4 13 -3 13 -20 0 -29 -7 -28 -104 16
-35 16 -65 28 -67 27 -1 -2 35 -23 82 -47 l84 -44 -1 -111 c-1 -107 -5 -124
-33 -175 -11 -18 -16 -20 -22 -9 -13 20 -93 83 -131 102 l-32 16 5 -27 c3 -15
14 -41 24 -58 11 -18 18 -43 15 -60 -2 -17 -4 -36 -4 -43 -1 -7 -5 -10 -11 -7
-5 3 -15 3 -22 -1 -7 -4 -23 -9 -37 -10 -13 -2 -27 -8 -31 -14 -4 -6 -26 -14
-49 -17 -22 -3 -41 -9 -41 -14 0 -5 -7 -6 -15 -3 -8 4 -15 1 -15 -6 0 -7 -7
-10 -15 -6 -9 3 -15 0 -15 -8 0 -8 -8 -17 -17 -20 -35 -14 -39 7 -42 197 -1
54 -5 87 -12 87 -5 0 -7 -4 -4 -10 3 -6 -1 -7 -9 -4 -10 4 -16 1 -16 -8 0 -8
-10 -25 -22 -38 -18 -19 -23 -38 -25 -84 -1 -33 2 -67 8 -77 13 -25 1 -53 -17
-38 -11 9 -14 8 -15 -2 0 -11 -2 -11 -6 -1 -3 8 -11 4 -24 -12 -11 -14 -35
-28 -55 -32 -19 -3 -36 -10 -39 -14 -2 -4 -19 -6 -36 -4 -22 3 -43 -5 -73 -26
-24 -16 -55 -32 -70 -36 -14 -3 -29 -10 -32 -15 -3 -5 -18 -9 -35 -9 -16 0
-30 -4 -30 -10 -1 -5 -3 -14 -4 -20 -1 -5 -3 -14 -4 -20 0 -5 -7 -10 -15 -10
-27 0 -22 24 11 53 l33 29 0 117 c1 105 3 120 25 155 24 40 126 135 180 168
17 10 24 18 18 18 -23 0 -13 18 13 24 15 4 24 9 22 12 -11 10 -60 -17 -55 -30
3 -8 -1 -17 -9 -20 -22 -8 -17 12 11 40 18 18 25 36 25 64 0 22 5 40 13 43 9
3 9 8 -2 21 -8 9 -21 14 -29 11 -10 -3 -12 0 -9 10 4 8 2 17 -3 20 -15 9 -12
25 4 25 27 0 27 33 0 62 -22 22 -28 39 -30 78 -1 27 2 50 7 50 6 0 5 8 -1 20
-6 11 -7 20 -3 20 22 0 146 -165 226 -300 33 -54 57 -86 57 -75 0 11 7 29 15
39 8 11 15 28 15 39 0 28 25 47 67 52 21 3 51 8 67 11 22 5 27 3 21 -7 -6 -9
-3 -11 10 -6 11 5 22 1 31 -10 13 -17 13 -17 14 0 0 9 5 17 10 17 6 0 10 6 10
14 0 7 9 25 20 39 11 14 20 36 20 49 0 27 -33 62 -68 73 -12 3 -20 11 -16 16
3 6 6 51 6 102 0 50 2 95 4 99 8 12 44 10 44 -3z m-495 -117 c-3 -3 -11 0 -18
7 -9 10 -8 11 6 5 10 -3 15 -9 12 -12z m892 -164 c-3 -7 -5 -2 -5 12 0 14 2
19 5 13 2 -7 2 -19 0 -25z m-17 18 c0 -3 -4 -8 -10 -11 -5 -3 -10 -1 -10 4 0
6 5 11 10 11 6 0 10 -2 10 -4z m-73 -88 c-3 -8 -6 -5 -6 6 -1 11 2 17 5 13 3
-3 4 -12 1 -19z m-10 -120 c-3 -8 -6 -5 -6 6 -1 11 2 17 5 13 3 -3 4 -12 1
-19z m76 2 c3 -11 1 -20 -4 -20 -5 0 -9 9 -9 20 0 11 2 20 4 20 2 0 6 -9 9
-20z m24 -12 c-3 -8 -6 -5 -6 6 -1 11 2 17 5 13 3 -3 4 -12 1 -19z m2943 -47
c13 -26 13 -31 -5 -31 -12 0 -13 -4 -3 -26 9 -20 9 -27 -2 -34 -26 -16 -40 1
-40 49 0 26 3 51 7 54 12 13 32 7 43 -12z m-3040 -11 c0 -11 -4 -20 -9 -20 -6
0 -9 9 -8 20 1 11 5 20 9 20 4 0 8 -9 8 -20z m106 -36 c3 -19 2 -19 -12 0 -8
11 -14 14 -14 8 0 -7 -5 -12 -11 -12 -5 0 -7 5 -4 10 3 6 1 10 -5 10 -6 0 -9
4 -5 10 9 15 48 -5 51 -26z m-109 -106 c-2 -18 -4 -4 -4 32 0 36 2 50 4 33 2
-18 2 -48 0 -65z m73 60 c0 10 3 10 14 0 8 -7 12 -16 9 -20 -2 -5 1 -8 6 -8 6
0 11 -4 11 -10 0 -5 -8 -10 -17 -10 -14 0 -15 -2 -5 -9 7 -4 15 -29 17 -56 5
-45 4 -47 -18 -41 -12 3 -25 6 -28 6 -13 0 -10 113 3 122 10 6 10 8 1 8 -7 0
-13 8 -13 18 0 14 2 15 10 2 7 -11 10 -11 10 -2z m-90 -64 c0 -8 -5 -12 -10
-9 -6 4 -8 11 -5 16 9 14 15 11 15 -7z m-2650 -24 c0 -5 -4 -10 -10 -10 -5 0
-10 5 -10 10 0 6 5 10 10 10 6 0 10 -4 10 -10z m3435 -80 c3 -6 -1 -7 -9 -4
-18 7 -21 14 -7 14 6 0 13 -4 16 -10z m1215 -21 c0 -9 53 -10 206 -5 l205 7
-12 -23 c-11 -20 -10 -21 2 -11 27 22 102 31 306 38 179 7 204 5 218 -9 9 -9
12 -16 6 -16 -6 0 -7 -7 -4 -17 4 -11 3 -14 -6 -9 -7 5 -20 1 -31 -9 -12 -11
-20 -13 -25 -6 -10 17 -22 13 -28 -9 -3 -11 -1 -20 4 -20 5 0 9 -4 9 -10 0 -5
-8 -10 -17 -10 -11 0 -5 -7 14 -16 57 -28 86 -62 81 -94 -2 -16 -1 -27 4 -24
4 3 8 0 8 -5 0 -6 -3 -11 -7 -11 -5 0 -6 -56 -4 -125 3 -109 1 -125 -13 -125
-9 0 -16 -5 -16 -11 0 -6 6 -9 14 -6 8 3 17 -1 20 -9 4 -9 -2 -14 -17 -14 -15
0 -18 -3 -9 -8 7 -5 10 -15 7 -23 -3 -8 3 -24 13 -34 12 -13 16 -29 14 -48 -4
-26 2 -46 29 -100 5 -10 9 -75 8 -145 0 -70 2 -157 6 -194 5 -62 5 -67 -12
-62 -17 6 -17 6 0 -7 12 -10 19 -32 22 -73 l3 -58 -141 6 c-78 4 -160 9 -182
11 -22 2 -103 7 -180 10 -77 4 -142 7 -145 7 -22 2 -29 -5 -27 -24 1 -14 -6
-26 -22 -34 -14 -7 -25 -22 -26 -33 -3 -40 -15 -34 -15 7 0 38 -2 42 -25 42
-16 0 -25 6 -25 15 0 10 10 15 33 15 23 1 28 3 17 9 -8 5 -76 12 -150 15 -74
4 -149 9 -167 12 -34 5 -55 -11 -24 -19 23 -6 28 -67 5 -67 -10 0 -14 -12 -12
-45 1 -36 4 -43 15 -34 10 9 13 8 13 0 0 -7 5 -9 10 -6 6 3 10 37 10 76 l0 69
50 0 50 0 0 -56 c0 -48 -2 -55 -17 -52 -10 2 -17 11 -17 21 1 9 -4 17 -10 17
-8 0 -11 -12 -8 -35 3 -28 0 -36 -16 -42 -20 -8 -22 -11 -22 -31 0 -13 -43 -7
-48 6 -2 7 -11 12 -20 12 -9 1 -28 10 -41 21 -21 17 -24 28 -25 94 l-1 75 -30
1 c-16 1 -41 2 -55 4 -45 5 -202 15 -330 21 -69 3 -134 8 -145 9 -11 2 -30 4
-42 4 -13 1 -23 7 -23 15 0 8 -4 17 -9 20 -5 4 -7 -3 -4 -14 5 -17 0 -20 -27
-20 -24 0 -31 4 -26 15 3 8 1 15 -4 15 -5 0 -7 7 -3 16 5 14 3 14 -15 3 -12
-8 -21 -18 -19 -24 3 -13 -3 -15 -58 -15 l-45 0 0 69 c0 69 0 69 30 76 17 4
30 12 30 18 1 7 5 6 13 -3 7 -9 23 -21 37 -27 18 -8 20 -12 8 -12 -11 -1 -15
-6 -12 -16 4 -8 15 -13 27 -11 17 3 21 9 19 30 -1 14 2 26 8 26 5 0 11 -10 11
-22 1 -20 2 -20 6 -4 10 37 69 72 94 54 11 -8 10 -9 -3 -4 -24 7 -23 -20 1
-33 10 -6 21 -7 25 -4 3 3 6 1 6 -6 0 -7 4 -10 9 -6 5 3 13 0 16 -6 4 -6 -2
-13 -14 -16 -25 -6 -26 -16 -5 -38 19 -19 40 -14 38 9 -1 9 2 16 7 16 5 0 9 6
9 14 0 16 27 29 41 20 14 -8 11 4 -7 31 -18 27 -5 35 16 10 11 -13 11 -44 -1
-84 -2 -7 2 -16 10 -18 9 -4 11 0 6 16 -5 17 -2 21 14 21 12 0 21 7 21 15 0 9
6 12 15 9 8 -4 15 -13 15 -20 0 -11 5 -12 18 -5 14 8 18 5 19 -11 1 -12 8 -27
15 -34 11 -11 18 -10 40 4 24 16 25 19 11 37 -13 16 -15 17 -10 3 4 -10 2 -18
-3 -18 -6 0 -10 11 -10 24 0 13 -7 29 -15 36 -10 9 -15 9 -15 1 0 -6 -5 -11
-11 -11 -8 0 -8 4 -1 13 7 9 4 20 -13 40 -27 30 -37 35 -29 12 4 -11 2 -13 -9
-9 -9 3 -25 0 -37 -6 -19 -10 -21 -9 -18 12 2 17 10 24 31 26 35 4 67 30 67
55 0 10 -4 16 -9 13 -5 -3 -11 1 -15 9 -3 8 -1 15 4 15 6 0 10 7 10 15 0 7 8
19 18 24 9 6 13 11 7 11 -5 0 10 10 35 22 25 12 49 20 53 19 18 -4 -6 20 -34
35 -37 19 -59 6 -59 -35 0 -31 -10 -46 -30 -47 -9 -1 -16 8 -16 23 -1 12 3 23
10 23 7 0 7 3 -2 8 -15 10 -30 60 -25 83 3 12 13 15 38 13 34 -2 46 8 25 21
-13 8 -80 -14 -80 -26 0 -5 -7 -9 -15 -9 -8 0 -24 -6 -35 -12 -17 -11 -22 -10
-29 0 -6 10 -10 9 -14 -7 -6 -26 19 -62 31 -43 12 18 55 -34 49 -60 -4 -15 -1
-18 13 -13 14 4 18 0 18 -20 0 -14 -4 -25 -9 -25 -5 0 -9 -7 -9 -15 0 -8 -11
-17 -25 -21 -26 -7 -35 -38 -12 -47 7 -4 6 -6 -5 -6 -9 -1 -19 -7 -22 -13 -4
-7 -4 -3 -2 9 3 15 0 20 -11 16 -7 -3 -12 -8 -9 -10 2 -3 -3 -12 -12 -22 -17
-17 -52 -17 -52 0 0 5 -8 9 -17 10 -10 0 -33 19 -52 40 -28 32 -34 48 -33 80
1 21 -3 39 -8 39 -6 0 -10 -17 -11 -37 0 -28 -2 -33 -8 -19 -5 14 -10 16 -15
8 -4 -7 -12 -10 -17 -6 -5 3 -7 10 -4 15 3 5 -2 6 -11 2 -13 -5 -15 -3 -9 8 7
12 6 12 -7 1 -28 -22 -42 9 -34 77 l7 59 -36 6 c-25 5 -39 14 -45 32 -6 14
-18 24 -29 24 -23 0 -36 16 -21 25 15 9 2 25 -15 19 -8 -3 -15 -13 -17 -22 -3
-11 -8 -5 -16 17 -10 29 -10 32 3 21 8 -7 20 -8 27 -4 7 5 22 7 33 6 16 -2 15
0 -5 11 -20 10 -26 11 -28 0 -4 -15 -22 -18 -22 -4 0 18 12 41 19 36 5 -2 25
1 47 7 21 6 46 10 53 9 13 -2 13 0 2 13 -8 9 -10 20 -6 24 4 4 10 2 12 -4 2
-7 18 -4 45 9 30 15 43 17 46 9 5 -15 59 -16 101 -1 23 8 35 8 45 0 22 -18
141 6 158 31 6 10 8 9 8 -4 0 -20 32 -32 61 -23 25 8 20 26 -11 42 -44 22 -78
62 -76 87 3 21 -2 24 -45 30 -27 4 -55 14 -64 22 -14 14 -16 14 -21 0 -3 -9
-11 -16 -16 -16 -6 0 -7 7 -4 16 4 9 1 22 -5 30 -8 10 -3 21 23 47 l34 34 -39
1 c-21 1 -45 8 -52 16 -8 7 -30 17 -50 20 -19 4 -35 12 -35 17 0 6 9 7 23 3
12 -4 31 -8 42 -9 11 -1 27 -4 35 -8 42 -17 101 -26 131 -20 38 7 72 33 45 33
-9 0 -16 -4 -16 -9 0 -16 -126 -2 -200 23 -49 16 -66 25 -48 25 15 1 30 -3 33
-9 3 -5 18 -9 33 -9 21 1 22 2 7 6 -58 14 -13 18 193 16 312 -3 339 -4 323
-10 -8 -3 -9 -8 -3 -12 5 -3 12 -29 14 -57 l4 -51 -55 -2 c-31 -1 -58 -5 -61
-8 -3 -3 45 -3 105 0 61 4 115 7 120 7 6 0 3 5 -5 11 -12 8 -10 9 10 7 25 -3
25 -2 28 82 1 47 5 91 7 98 2 6 20 12 40 12 19 0 35 5 35 10 0 6 5 10 10 10 6
0 10 -5 10 -11z m-1874 -20 c3 -5 -2 -9 -10 -9 -9 0 -16 -8 -15 -17 0 -11 3
-13 6 -5 2 6 8 12 13 12 12 0 -1 -43 -19 -60 -13 -13 -14 -13 -8 4 5 11 1 28
-8 42 -12 18 -12 24 -3 25 10 0 10 2 1 6 -7 2 -13 8 -13 12 0 11 49 1 56 -10z
m631 -15 c-5 -5 -57 13 -57 20 0 3 14 0 31 -6 16 -6 28 -12 26 -14z m-700 -76
c-3 -8 -6 -5 -6 6 -1 11 2 17 5 13 3 -3 4 -12 1 -19z m895 0 c-7 -7 -12 -8
-12 -2 0 6 3 14 7 17 3 4 9 5 12 2 2 -3 -1 -11 -7 -17z m1965 -20 c-3 -7 -5
-2 -5 12 0 14 2 19 5 13 2 -7 2 -19 0 -25z m-3149 7 c-26 -7 -106 -42 -177
-79 -135 -68 -209 -88 -261 -68 -23 9 -22 10 20 17 25 4 68 16 95 27 28 10 61
21 75 24 13 3 29 9 35 14 25 20 193 79 225 79 34 -1 34 -1 -12 -14z m1229 9
c-3 -3 -12 -4 -19 -1 -8 3 -5 6 6 6 11 1 17 -2 13 -5z m-929 -31 c-13 -16 -15
-16 -21 1 -4 10 0 14 13 13 14 -1 16 -4 8 -14z m1279 -9 c-3 -3 -12 -4 -19 -1
-8 3 -5 6 6 6 11 1 17 -2 13 -5z m-65 -43 c-12 -7 -62 -4 -62 5 0 2 17 4 38 4
23 0 32 -3 24 -9z m-1179 -30 c-4 -4 -11 -10 -14 -14 -4 -4 -6 4 -6 18 0 21 2
23 14 14 8 -7 10 -15 6 -18z m-2558 -1 c50 -6 134 -14 189 -16 62 -3 106 -10
121 -20 12 -8 30 -12 41 -8 15 6 17 4 7 -6 -10 -11 -18 -11 -38 -2 -34 16 -40
15 -25 -3 10 -12 10 -15 0 -15 -8 0 -11 -3 -7 -6 3 -3 11 -2 18 2 7 4 23 8 35
9 20 0 22 -4 19 -30 -3 -17 1 -11 7 13 9 35 15 42 37 43 14 1 31 0 36 -2 6 -1
37 -3 70 -4 33 -1 67 -5 75 -8 8 -3 30 -8 49 -9 32 -3 46 -18 207 -228 95
-124 171 -226 171 -226 -6 -6 -766 -10 -773 -5 -5 3 -9 31 -9 61 l0 55 -72 3
-73 3 0 -61 0 -61 -300 4 c-165 2 -302 5 -304 8 -4 4 17 178 29 245 l5 31 128
-1 c125 -1 163 7 185 38 4 6 7 54 6 106 -2 92 -1 95 22 101 13 4 31 5 39 3 8
-2 56 -8 105 -14z m2522 -12 c-3 -8 -6 -5 -6 6 -1 11 2 17 5 13 3 -3 4 -12 1
-19z m-1581 -69 c4 -7 22 -9 45 -6 22 3 53 0 70 -6 l31 -12 -6 -80 c-3 -44 -6
-109 -6 -144 l0 -64 -40 54 c-23 30 -74 99 -116 154 -64 85 -72 101 -57 107
28 11 71 9 79 -3z m670 -24 c13 -1 24 2 24 6 0 13 56 11 102 -3 29 -8 40 -18
44 -37 3 -14 9 -33 14 -42 9 -18 -5 -39 -27 -39 -7 0 -13 -6 -13 -13 0 -11
-34 -47 -44 -47 -2 0 -3 8 -2 18 0 10 -6 16 -16 16 -11 -1 -18 5 -18 17 0 11
-7 19 -15 19 -8 0 -14 -3 -14 -7 4 -25 -4 -34 -11 -13 -8 24 -8 24 -9 -7 -1
-17 -6 -35 -12 -39 -7 -4 -9 -21 -5 -47 9 -55 -4 -183 -16 -165 -7 9 -8 1 -4
-24 4 -31 2 -38 -12 -38 -12 0 -13 -3 -5 -8 13 -8 12 -29 -2 -52 -5 -8 -10
-29 -12 -46 -2 -18 -10 -45 -18 -61 -18 -33 -19 -47 -4 -37 8 5 8 1 0 -14 -6
-11 -11 -30 -11 -42 0 -16 -5 -20 -15 -16 -9 3 -15 0 -15 -8 0 -22 -31 -28
-51 -10 -22 20 -26 2 -4 -19 12 -13 11 -15 -13 -13 -32 1 -62 24 -62 47 0 20
24 42 35 31 5 -4 5 -1 1 6 -4 7 2 23 13 38 11 14 25 42 32 62 6 20 18 44 26
53 7 9 16 39 20 68 5 43 3 51 -11 51 -13 0 -16 13 -16 80 0 44 3 81 8 81 4 1
21 3 39 5 28 2 33 -1 38 -27 12 -54 28 -45 20 12 -8 69 -14 89 -25 89 -6 0 -6
10 0 24 6 17 5 26 -2 28 -18 6 0 55 22 61 23 6 27 45 8 66 -11 11 -10 12 0 7
7 -5 24 -9 38 -11z m-291 -28 c6 -8 17 -12 25 -9 8 3 5 -4 -7 -14 -15 -13 -23
-34 -27 -67 -4 -43 -18 -69 -56 -107 -3 -3 -14 -18 -24 -34 -26 -41 -36 -18
-32 75 2 41 4 98 5 128 l1 54 53 -6 c28 -4 57 -13 62 -20z m138 3 c-5 -19 -23
-29 -23 -12 0 7 20 32 26 32 1 0 0 -9 -3 -20z m952 10 c-3 -5 -2 -10 4 -10 5
0 12 6 14 13 5 12 11 -18 8 -37 -1 -5 4 -13 11 -18 10 -7 9 -11 -6 -23 -12 -9
-17 -21 -13 -36 3 -12 -1 -36 -11 -53 -9 -17 -15 -37 -14 -43 3 -15 -7 -16
-25 -5 -18 11 -16 171 3 200 14 21 42 33 29 12z m-1072 -65 c-3 -9 -8 -14 -10
-11 -3 3 -2 9 2 15 9 16 15 13 8 -4z m133 -81 c8 20 34 21 34 2 0 -7 -7 -19
-16 -27 -9 -7 -14 -22 -11 -36 2 -13 0 -23 -4 -23 -5 0 -9 9 -9 20 0 11 -4 20
-9 20 -5 0 -11 8 -14 18 -2 9 -8 26 -12 37 -6 17 -4 17 14 -4 18 -20 22 -21
27 -7z m1102 13 c-1 -2 3 -11 10 -20 11 -13 10 -16 -10 -23 -22 -7 -22 -7 -3
-15 15 -6 11 -8 -17 -7 -27 2 -34 5 -28 13 6 7 7 14 5 17 -3 3 6 3 20 1 15 -3
25 -1 25 6 0 7 -4 10 -9 7 -5 -4 -7 3 -4 14 3 12 8 19 10 16 3 -2 3 -6 1 -9z
m62 3 c0 -5 -4 -10 -10 -10 -5 0 -10 5 -10 10 0 6 5 10 10 10 6 0 10 -4 10
-10z m793 -17 c-6 -15 -4 -16 9 -6 8 7 18 10 21 6 14 -13 6 -23 -18 -23 -14 0
-25 5 -25 10 0 6 -5 10 -11 10 -5 0 -7 -4 -4 -10 3 -5 2 -10 -3 -10 -22 0 -20
29 1 33 12 2 25 5 29 6 4 0 4 -7 1 -16z m-804 -27 c-3 -3 -11 5 -18 17 -13 21
-12 21 5 5 10 -10 16 -20 13 -22z m741 14 c0 -5 -4 -10 -10 -10 -5 0 -10 5
-10 10 0 6 5 10 10 10 6 0 10 -4 10 -10z m-890 -30 c0 -20 -25 -38 -36 -27 -7
6 18 47 28 47 5 0 8 -9 8 -20z m-12 -135 l2 -95 -29 0 c-28 0 -41 14 -41 46 0
9 4 13 9 9 15 -8 25 15 12 28 -8 8 -11 7 -11 -3 0 -7 -3 -11 -6 -7 -3 3 1 16
10 29 9 12 16 32 16 45 0 12 8 27 18 32 9 6 17 11 17 11 0 0 1 -43 3 -95z
m116 75 c14 -14 56 -13 56 3 0 8 3 7 9 -3 11 -16 4 -33 -10 -25 -5 4 -9 2 -9
-4 0 -5 4 -11 10 -13 5 -1 11 -27 13 -55 l3 -53 -68 0 c-74 0 -80 5 -73 70 1
19 3 50 4 68 1 29 3 32 28 28 14 -3 31 -10 37 -16z m806 -80 c0 -5 -4 -10 -9
-10 -6 0 -13 5 -16 10 -3 6 1 10 9 10 9 0 16 -4 16 -10z m-2064 -35 c-1 -33
-3 -35 -35 -35 -30 0 -32 2 -20 18 48 63 56 65 55 17z m1942 -70 c-3 -3 -9 2
-12 12 -6 14 -5 15 5 6 7 -7 10 -15 7 -18z m212 -10 c0 -28 -15 -34 -24 -9 -3
8 -2 12 4 9 6 -3 10 1 10 9 0 9 2 16 5 16 3 0 5 -11 5 -25z m-3598 -76 c15 -8
19 -8 14 0 -4 6 -1 11 8 11 8 0 18 -9 21 -20 3 -11 11 -20 17 -20 6 0 6 6 -2
15 -7 9 -10 18 -7 21 3 3 12 -3 19 -15 15 -24 28 -27 28 -7 0 17 22 26 66 26
l34 0 0 -64 c0 -71 4 -76 70 -76 55 0 70 8 70 39 0 14 3 43 6 64 l7 37 130 0
c103 0 134 -3 147 -15 15 -14 18 -14 30 0 10 13 47 15 226 15 136 0 214 -4
214 -10 0 -5 5 -10 11 -10 5 0 7 5 4 10 -3 6 1 10 9 10 24 0 20 -12 -21 -61
-42 -50 -54 -60 -64 -53 -4 2 -13 -4 -20 -14 -13 -15 -12 -16 4 -3 26 21 20 0
-11 -34 -15 -16 -40 -48 -57 -70 -16 -22 -74 -94 -128 -160 -55 -66 -145 -175
-200 -242 -80 -97 -105 -122 -121 -118 -12 2 -55 7 -96 11 -41 3 -84 8 -94 9
-11 2 -76 9 -145 15 -69 6 -153 15 -186 18 l-60 7 -57 145 c-31 80 -57 153
-57 162 -1 21 -49 78 -64 77 -8 0 -8 -2 1 -6 12 -5 17 -33 6 -33 -4 0 -12 7
-19 17 -8 10 -17 13 -26 7 -7 -4 -29 -7 -48 -5 -20 2 -37 -3 -42 -10 -6 -10
-8 -7 -6 9 0 12 6 22 12 22 5 0 3 4 -5 9 -11 8 -15 41 -17 155 l-2 146 190 0
c119 0 198 -4 211 -11z m1419 -13 c1 -6 1 -18 0 -26 -1 -11 3 -10 14 4 13 17
17 14 14 -10 0 -4 5 -11 13 -16 9 -7 7 -8 -9 -5 -16 4 -20 1 -16 -12 5 -17
-41 32 -57 60 -8 13 -5 17 15 17 14 0 26 -6 26 -12z m2049 -1 c15 -18 7 -43
-16 -52 -19 -7 -34 12 -34 45 0 26 30 31 50 7z m-865 -111 c4 -51 4 -97 1
-102 -3 -6 -2 -13 3 -16 14 -9 21 19 21 80 0 30 3 54 8 55 48 3 97 9 122 14
l30 7 0 -91 c0 -55 -4 -92 -11 -97 -8 -4 -7 -9 2 -15 12 -7 11 -11 -1 -23 -20
-19 -60 -4 -60 24 0 15 -7 20 -27 21 -16 0 -40 3 -55 5 -16 3 -28 0 -28 -6 0
-5 -14 -10 -32 -10 -30 0 -31 -1 -13 -20 17 -18 17 -21 0 -62 l-18 -43 -52 1
c-29 1 -58 4 -64 8 -13 9 -6 43 14 66 13 14 15 20 15 39 0 5 16 8 35 7 19 -2
35 1 35 5 0 5 -4 9 -10 9 -15 0 -12 22 7 45 15 20 15 20 10 -2 -5 -21 -4 -21
17 -8 13 9 26 12 31 8 4 -5 5 -2 1 5 -4 7 -12 10 -17 7 -5 -4 -9 -2 -9 4 0 5
-13 12 -29 16 -32 7 -71 39 -71 58 0 7 7 3 15 -7 12 -16 17 -17 28 -7 10 10 9
12 -2 9 -19 -4 -37 50 -22 65 9 9 11 7 6 -8 -6 -18 -6 -19 5 -2 8 13 9 22 1
31 -17 20 -2 27 55 25 l52 -2 7 -93z m158 80 c61 -10 31 -24 -52 -24 -58 0
-78 3 -78 13 0 16 68 22 130 11z m107 -43 c0 -6 4 -11 9 -11 5 0 7 10 4 23 -4
18 -3 19 6 7 9 -13 11 -13 11 3 0 11 8 17 23 17 12 0 17 -4 11 -8 -28 -19 -27
-82 2 -82 8 0 14 -9 14 -20 0 -21 19 -28 21 -7 1 24 10 61 15 66 3 3 3 -14 0
-39 -7 -45 -6 -45 11 -22 18 22 18 22 33 2 17 -23 27 -25 33 -7 2 6 3 0 1 -15
-4 -31 -4 -31 28 -19 20 7 29 3 58 -29 53 -56 50 -60 -35 -60 -62 0 -73 2 -69
15 4 8 11 15 17 15 6 0 8 3 4 6 -3 3 -16 -1 -29 -10 -32 -23 -44 -20 -22 6
l19 22 -31 -22 c-23 -16 -34 -18 -42 -10 -9 9 -12 9 -12 0 0 -7 -4 -12 -10
-12 -5 0 -7 7 -3 16 3 9 13 14 24 11 11 -3 17 -1 13 4 -10 17 -46 9 -51 -11
-7 -25 -19 -26 -26 -1 -3 13 0 18 8 15 7 -3 15 2 18 10 4 9 4 16 1 16 -9 0
-68 -34 -75 -44 -4 -4 -9 -3 -13 2 -4 6 2 15 11 21 10 6 12 11 6 11 -10 0 -13
25 -13 91 0 80 2 89 15 75 8 -8 15 -19 15 -25z m367 7 c-3 -8 -6 -5 -6 6 -1
11 2 17 5 13 3 -3 4 -12 1 -19z m-287 -19 c0 -11 -4 -17 -10 -14 -5 3 -10 13
-10 21 0 8 5 14 10 14 6 0 10 -9 10 -21z m167 15 c-3 -3 -12 -4 -19 -1 -8 3
-5 6 6 6 11 1 17 -2 13 -5z m228 -4 c3 -5 1 -10 -4 -10 -6 0 -11 5 -11 10 0 6
2 10 4 10 3 0 8 -4 11 -10z m-209 -20 c0 -12 -4 -16 -9 -11 -5 5 -6 14 -3 20
10 15 12 14 12 -9z m-46 0 c0 -5 -5 -10 -11 -10 -5 0 -7 5 -4 10 3 6 8 10 11
10 2 0 4 -4 4 -10z m720 -16 c0 -8 -3 -14 -7 -14 -13 1 -43 27 -37 32 10 10
44 -4 44 -18z m-646 -19 c3 -8 1 -15 -4 -15 -6 0 -10 7 -10 15 0 8 2 15 4 15
2 0 6 -7 10 -15z m273 -17 c-3 -7 -5 -2 -5 12 0 14 2 19 5 13 2 -7 2 -19 0
-25z m253 28 c0 -3 -4 -8 -10 -11 -5 -3 -10 -1 -10 4 0 6 5 11 10 11 6 0 10
-2 10 -4z m-2506 -28 c-4 -6 -7 -57 -6 -112 2 -69 -2 -106 -10 -116 -15 -17
-90 -60 -107 -60 -6 0 -32 -14 -58 -32 -26 -17 -68 -45 -93 -62 -76 -51 -139
-130 -164 -208 -3 -10 -11 -18 -18 -18 -46 1 -33 22 134 232 240 299 239 298
276 337 17 19 32 39 32 43 0 4 5 8 11 8 5 0 7 -5 3 -12z m1920 -3 c-4 -8 -8
-15 -10 -15 -2 0 -4 7 -4 15 0 8 4 15 10 15 5 0 7 -7 4 -15z m319 -35 c6 -8 8
-12 3 -8 -14 12 -35 -18 -32 -46 3 -23 0 -26 -30 -26 -32 0 -34 2 -34 33 0 17
4 37 8 43 8 12 43 28 55 26 4 -1 6 1 6 6 -3 19 4 25 8 7 3 -11 10 -27 16 -35z
m527 40 c0 -5 -5 -10 -11 -10 -5 0 -7 5 -4 10 3 6 8 10 11 10 2 0 4 -4 4 -10z
m115 -1 c11 -17 -1 -21 -15 -4 -8 9 -8 15 -2 15 6 0 14 -5 17 -11z m-1840 -19
c3 -5 3 -37 -1 -70 -6 -59 -7 -60 -28 -46 -22 14 -22 23 -5 89 10 36 22 46 34
27z m-854 -26 l24 -26 -24 -17 c-13 -9 -35 -27 -50 -41 -14 -14 -23 -21 -19
-15 5 5 8 35 8 67 0 49 3 58 18 58 10 0 29 -12 43 -26z m2769 -4 c0 -5 -2 -10
-4 -10 -3 0 -8 5 -11 10 -3 6 -1 10 4 10 6 0 11 -4 11 -10z m-837 -25 c-7 -21
-12 -19 -10 4 0 11 5 18 9 15 4 -3 5 -11 1 -19z m-83 -2 c0 -10 -5 -25 -11
-33 -9 -13 -10 -12 -5 3 3 9 1 17 -4 17 -5 0 -7 7 -4 15 8 21 24 19 24 -2z
m-330 -27 c0 -2 -7 -7 -16 -10 -8 -3 -12 -2 -9 4 6 10 25 14 25 6z m431 -23
c13 -16 12 -17 -3 -4 -17 13 -22 21 -14 21 2 0 10 -8 17 -17z m-617 -37 c-2
-12 -5 -42 -5 -68 -2 -48 -12 -65 -39 -64 -11 1 -16 16 -18 65 -4 80 -1 88 36
88 25 0 30 -4 26 -21z m-97 -8 c-3 -8 -6 -5 -6 6 -1 11 2 17 5 13 3 -3 4 -12
1 -19z m373 13 c0 -5 -9 -7 -20 -4 -11 3 -20 7 -20 9 0 2 9 4 20 4 11 0 20 -4
20 -9z m100 -12 c0 -19 -21 -49 -34 -49 -3 0 -6 14 -6 30 0 32 -16 41 -23 13
-4 -14 -5 -12 -6 5 -1 19 4 22 34 22 29 0 35 -4 35 -21z m98 -21 c2 -23 -1
-38 -7 -38 -6 0 -11 14 -11 30 0 23 -5 30 -19 30 -17 0 -19 -5 -14 -36 5 -29
3 -36 -8 -32 -15 5 -24 50 -15 74 4 10 17 14 38 12 29 -3 32 -6 36 -40z m92
12 c0 -11 -4 -20 -10 -20 -5 0 -10 4 -10 10 0 5 -7 7 -15 4 -11 -5 -13 -2 -9
10 9 24 44 20 44 -4z m-3548 -10 c0 -8 2 -20 2 -26 1 -6 7 -19 15 -28 11 -14
11 -16 -3 -16 -9 0 -16 4 -16 9 0 9 -58 0 -120 -19 -23 -7 -36 -7 -38 0 -2 6
-7 8 -11 5 -5 -2 -6 6 -4 20 4 18 13 25 43 30 21 4 48 15 60 25 24 21 69 21
72 0z m3963 -77 c-7 -51 -27 -53 -33 -4 -4 38 29 101 36 67 2 -10 1 -38 -3
-63z m95 63 c0 -8 -4 -18 -10 -21 -5 -3 -10 1 -10 10 0 10 -7 15 -17 13 -12
-2 -17 -12 -17 -28 1 -14 3 -45 5 -70 2 -25 -1 -45 -6 -45 -6 0 -11 35 -13 78
l-3 77 36 0 c24 0 35 -5 35 -14z m138 -14 c2 -13 9 -21 15 -19 7 2 11 11 9 21
-2 13 6 16 43 16 42 0 45 -2 46 -27 1 -16 2 -45 3 -65 3 -34 0 -38 -21 -38
-21 0 -23 4 -23 49 0 28 -4 53 -10 56 -6 4 -10 -8 -10 -29 0 -29 -4 -36 -20
-36 -11 0 -28 9 -37 19 -24 29 -33 17 -26 -39 4 -34 2 -50 -6 -50 -6 0 -11 16
-11 35 0 22 -6 38 -15 41 -8 4 -12 10 -9 16 3 5 -3 12 -13 14 -15 4 -18 12
-15 35 4 29 6 30 51 27 39 -3 46 -6 49 -26z m-4158 2 c0 -8 -4 -12 -10 -9 -5
3 -10 10 -10 16 0 5 5 9 10 9 6 0 10 -7 10 -16z m4395 -12 c3 -8 0 -19 -7 -23
-9 -6 -9 -11 1 -22 14 -18 11 -103 -3 -99 -6 1 -9 25 -7 52 2 45 0 50 -18 50
-12 0 -20 -5 -18 -11 1 -6 -4 -14 -11 -16 -9 -3 -12 5 -10 28 1 19 -3 34 -10
37 -6 2 -12 9 -12 15 0 19 87 9 95 -11z m83 12 c25 -5 31 -12 36 -42 3 -21 0
-49 -7 -64 -13 -31 -44 -37 -54 -10 -4 9 -10 19 -15 23 -4 3 -11 26 -14 52 -7
51 -5 53 54 41z m157 -59 c0 -49 -1 -50 -27 -47 -22 2 -28 -1 -28 -18 0 -11
-6 -20 -14 -20 -15 0 -26 42 -26 102 l0 39 48 -3 47 -3 0 -50z m-4915 5 c0
-16 -4 -30 -10 -30 -5 0 -10 -5 -10 -11 0 -6 7 -8 16 -5 9 4 13 2 8 -5 -4 -6
0 -15 7 -20 11 -8 11 -11 -5 -20 -14 -9 -16 -13 -5 -20 11 -6 11 -12 0 -32 -7
-13 -11 -32 -9 -43 2 -14 -3 -19 -22 -19 -25 0 -25 2 -27 85 -1 47 -4 95 -7
107 -5 24 15 42 47 43 12 0 17 -8 17 -30z m5267 24 c16 -5 21 -12 18 -32 -2
-15 -4 -30 -4 -34 -1 -5 -4 -7 -8 -7 -22 4 -30 -4 -43 -36 -22 -57 -38 -44
-42 36 -2 39 -1 73 1 75 6 6 52 5 78 -2z m-1997 -19 c0 -8 -7 -15 -15 -15 -8
0 -15 7 -15 15 0 8 7 15 15 15 8 0 15 -7 15 -15z m383 -20 c-8 -22 -22 -18
-16 5 3 11 9 17 14 15 4 -3 6 -12 2 -20z m652 15 c-3 -5 -10 -10 -16 -10 -5 0
-9 5 -9 10 0 6 7 10 16 10 8 0 12 -4 9 -10z m1243 -26 c2 -25 -1 -33 -17 -37
-16 -4 -21 -13 -21 -41 0 -20 -4 -36 -10 -36 -5 0 -10 9 -10 20 0 13 -7 20
-19 20 -16 0 -19 8 -20 56 l0 55 47 -3 c45 -3 47 -5 50 -34z m128 22 c1 -1 4
-45 7 -98 l6 -98 -24 0 c-14 0 -25 6 -25 13 0 24 -31 77 -44 77 -13 0 -29 96
-19 112 3 6 93 0 99 -6z m132 -5 c19 -12 12 -116 -8 -116 -11 0 -15 -11 -15
-39 0 -23 -5 -41 -12 -43 -16 -6 -17 -24 -2 -20 6 1 14 -4 16 -10 3 -8 -5 -13
-21 -13 -26 0 -26 1 -22 65 4 58 2 65 -14 65 -19 0 -28 38 -22 93 3 25 7 27
45 27 23 0 48 -4 55 -9z m142 -18 c0 -10 3 -28 6 -40 5 -19 2 -23 -15 -23 -21
0 -26 -16 -22 -62 2 -11 -4 -18 -14 -18 -13 0 -15 10 -11 60 3 46 0 60 -10 61
-8 1 -20 2 -26 3 -7 0 -14 9 -16 19 -3 14 5 17 52 17 47 0 56 -3 56 -17z
m-1635 -3 c3 -5 1 -10 -4 -10 -6 0 -11 5 -11 10 0 6 2 10 4 10 3 0 8 -4 11
-10z m1776 -14 c0 -11 2 -37 3 -56 1 -19 -2 -42 -8 -51 -7 -12 -5 -22 7 -34
12 -12 14 -21 7 -34 -12 -23 1 -72 27 -105 27 -34 20 -92 -12 -100 -16 -4 -25
-16 -29 -41 -8 -43 -36 -48 -36 -6 0 15 -9 40 -21 55 -17 22 -20 34 -14 76 4
28 12 50 18 50 7 1 1 7 -12 14 l-23 13 26 20 c23 18 26 30 32 107 5 63 4 86
-5 86 -17 0 -28 -36 -25 -86 3 -37 0 -44 -16 -44 -11 0 -20 -9 -23 -22 -2 -13
-5 23 -6 79 l-1 103 55 -1 c49 -1 55 -4 56 -23z m-2623 -88 c15 -15 16 -38 1
-38 -14 0 -39 25 -39 39 0 15 23 14 38 -1z m1942 -29 c0 -20 -24 -26 -35 -9
-8 13 14 42 26 34 5 -3 9 -14 9 -25z m-1012 -10 c3 -11 1 -11 -7 1 -9 12 -11
11 -11 -7 0 -16 -6 -23 -19 -23 -24 0 -33 13 -25 34 8 20 56 16 62 -5z m772
-19 c0 -5 -4 -10 -10 -10 -5 0 -10 5 -10 10 0 6 5 10 10 10 6 0 10 -4 10 -10z
m-712 -23 c2 -12 -3 -17 -17 -17 -23 0 -24 1 -15 25 8 19 28 15 32 -8z m934 0
c-6 -24 -28 -32 -47 -17 -27 22 -18 41 19 38 27 -1 32 -5 28 -21z m-295 -3 c5
-14 -35 -26 -43 -13 -8 14 6 30 24 27 8 -2 17 -8 19 -14z m480 -6 c-3 -8 -6
-5 -6 6 -1 11 2 17 5 13 3 -3 4 -12 1 -19z m593 -20 c0 -16 -3 -19 -11 -11 -6
6 -8 16 -5 22 11 17 16 13 16 -11z m-270 2 c0 -5 -4 -10 -10 -10 -5 0 -10 5
-10 10 0 6 5 10 10 10 6 0 10 -4 10 -10z m237 -27 c-3 -10 -5 -4 -5 12 0 17 2
24 5 18 2 -7 2 -21 0 -30z m-725 -6 c3 -6 4 -16 1 -23 -4 -11 -8 -11 -20 1 -8
9 -18 13 -23 10 -5 -3 -12 0 -16 6 -15 26 40 31 58 6z m-5422 -57 c-7 -52 -7
-53 -9 -13 -1 36 7 80 14 71 1 -2 -1 -28 -5 -58z m445 5 c0 -15 -9 -21 -38
-26 -21 -3 -43 -11 -50 -18 -20 -20 -37 -12 -37 19 0 24 4 30 23 30 12 0 29 5
37 10 25 17 65 8 65 -15z m4949 7 c5 -3 -1 -9 -14 -14 -25 -9 -47 3 -36 21 6
9 26 6 50 -7z m-4765 -8 c2 -2 -2 -124 -9 -271 -7 -148 -13 -277 -12 -288 1
-14 -1 -16 -7 -7 -6 10 -12 7 -25 -13 -9 -14 -22 -23 -28 -19 -6 4 -9 1 -6 -7
2 -7 -4 -22 -14 -33 -17 -19 -18 -19 -38 -1 -22 20 -54 30 -44 14 3 -5 0 -9
-5 -9 -6 0 -11 -7 -11 -15 0 -10 -10 -15 -34 -15 -35 0 -55 13 -36 25 5 3 10
14 10 24 0 13 10 20 30 25 17 3 33 14 37 23 4 10 12 23 19 28 14 12 21 78 30
285 4 85 10 156 15 158 4 2 5 28 2 59 l-6 55 64 -7 c35 -4 66 -9 68 -11z m146
-10 l47 -7 -6 -51 c-3 -28 -7 -91 -7 -139 -2 -86 -2 -90 -39 -135 -21 -26 -54
-65 -74 -87 l-37 -40 6 160 c3 88 8 193 11 233 7 81 4 79 99 66z m3495 -10 c0
-8 -4 -12 -10 -9 -5 3 -10 10 -10 16 0 5 5 9 10 9 6 0 10 -7 10 -16z m-3995
-16 c-1 -13 -3 -26 -4 -30 -1 -9 -98 -21 -110 -14 -20 13 1 43 37 53 63 18 80
16 77 -9z m689 6 c25 -4 46 -10 46 -13 0 -5 -112 -143 -147 -181 -6 -6 -2 171
4 188 6 14 29 15 97 6z m2636 -24 c0 -12 79 -90 91 -90 5 0 9 5 9 10 0 7 7 7
20 0 14 -8 19 -17 15 -29 -4 -13 7 -32 38 -62 23 -24 29 -32 12 -17 -16 15
-44 33 -60 40 -42 18 -161 158 -135 158 5 0 10 -4 10 -10z m-2391 -67 c-3
-129 -4 -130 -63 -138 -68 -10 -88 -21 -84 -48 2 -12 9 -21 15 -20 7 2 38 6
69 9 l57 7 -5 -87 c-2 -47 -10 -92 -16 -98 -16 -16 -15 -28 1 -28 9 0 12 -24
11 -88 -1 -48 -4 -98 -7 -112 -6 -24 -16 -197 -17 -287 0 -66 -15 -51 -29 28
-15 79 -8 75 -95 53 l-26 -6 6 118 c3 66 7 124 9 130 2 8 19 9 52 3 66 -11 75
-11 71 2 -2 6 -30 12 -62 14 -32 2 -63 8 -69 14 -6 6 -7 11 -2 11 6 0 11 21
13 47 2 26 5 49 7 51 2 2 22 6 44 9 23 3 41 9 41 14 0 5 -6 7 -12 5 -7 -3 -28
-7 -47 -10 l-34 -6 8 161 7 162 62 78 c36 47 68 79 79 79 16 0 18 -8 16 -67z
m-1126 44 c8 -21 -5 -32 -38 -32 -16 0 -33 -4 -37 -10 -5 -6 -11 -6 -17 0 -8
8 -6 18 5 33 17 25 78 31 87 9z m356 -171 c-3 -70 -8 -128 -10 -130 -2 -2 -20
-6 -39 -8 -31 -3 -36 1 -57 37 -18 32 -23 56 -23 116 l0 75 63 21 c34 11 64
20 67 18 3 -2 2 -60 -1 -129z m4028 108 c-3 -4 -14 -3 -24 0 -15 6 -15 8 -3
16 16 10 39 -4 27 -16z m160 20 c-3 -3 -12 -4 -19 -1 -8 3 -5 6 6 6 11 1 17
-2 13 -5z m7 -26 c-3 -4 -11 -5 -19 -1 -21 7 -19 12 4 10 11 0 18 -5 15 -9z
m-3377 -80 c-2 -13 -4 -5 -4 17 -1 22 1 32 4 23 2 -10 2 -28 0 -40z m3899 7
c-10 -8 -24 -11 -30 -8 -6 4 0 10 14 14 36 10 37 10 16 -6z m58 -20 c-4 -8 -8
-15 -10 -15 -2 0 -4 7 -4 15 0 8 4 15 10 15 5 0 7 -7 4 -15z m36 11 c0 -2 -8
-10 -17 -17 -16 -13 -17 -12 -4 4 13 16 21 21 21 13z m-102 -61 c-3 -3 -9 2
-12 12 -6 14 -5 15 5 6 7 -7 10 -15 7 -18z m455 -15 c-7 -26 0 -25 45 5 31 21
38 23 40 10 2 -9 -7 -26 -19 -39 -21 -22 -25 -23 -72 -10 -28 7 -55 10 -60 7
-6 -3 -7 -1 -3 5 4 7 2 12 -5 12 -23 0 12 29 39 32 36 5 41 2 35 -22z m-4608
-147 c-2 -93 -4 -176 -4 -186 -1 -10 -11 -22 -23 -27 -19 -7 -20 -9 -5 -9 17
-1 18 -10 14 -113 -8 -210 -12 -273 -21 -293 -6 -16 -6 -17 3 -5 8 12 11 6 11
-27 0 -31 -6 -48 -22 -63 -12 -11 -25 -20 -29 -20 -16 0 -15 27 3 55 22 37 24
58 2 26 -13 -18 -19 -20 -26 -10 -7 10 -8 9 -4 -5 5 -14 -4 -28 -30 -53 -20
-18 -40 -33 -43 -33 -4 0 -6 17 -5 38 2 20 5 158 8 306 6 259 6 269 27 287 19
16 19 19 5 19 -14 0 -16 9 -15 48 3 42 10 57 77 140 41 50 76 92 78 92 1 0 1
-75 -1 -167z m4245 149 c0 -4 -9 -13 -19 -19 -16 -10 -20 -9 -24 8 -4 15 0 19
19 19 13 0 24 -3 24 -8z m-3981 -51 c-1 -28 -6 -56 -11 -63 -5 -8 -6 12 -4 47
6 71 5 65 11 65 3 0 5 -22 4 -49z m3459 11 c45 -9 82 -19 82 -23 0 -11 -153
-18 -172 -8 -11 6 -37 13 -60 17 -23 4 -43 13 -45 19 -6 17 95 15 195 -5z
m-4725 -57 l16 -45 -25 0 c-14 0 -24 6 -24 14 0 18 12 76 15 76 2 0 10 -20 18
-45z m5485 16 c2 -13 -2 -28 -10 -32 -9 -6 -4 -9 15 -9 17 0 27 -5 27 -15 0
-8 -4 -15 -10 -15 -5 0 -10 3 -10 8 0 4 -33 6 -74 4 -44 -2 -107 3 -151 12
-43 9 -114 16 -158 16 -90 0 -189 19 -184 35 6 17 112 17 179 0 37 -10 115
-18 191 -20 l127 -3 0 25 c0 21 4 24 28 21 20 -2 28 -9 30 -27z m-641 13 c-3
-3 -12 -4 -19 -1 -8 3 -5 6 6 6 11 1 17 -2 13 -5z m46 -11 c-7 -2 -19 -2 -25
0 -7 3 -2 5 12 5 14 0 19 -2 13 -5z m-4459 -55 c-1 -13 -3 -34 -3 -48 -1 -18
-4 -21 -10 -11 -5 7 -6 23 -4 35 3 15 2 17 -5 8 -7 -11 -10 -9 -15 7 -3 12 0
24 5 28 7 4 8 1 4 -8 -4 -8 -1 -6 6 3 16 21 25 15 22 -14z m5750 -10 c19 -27
13 -37 -19 -30 -32 6 -40 18 -23 36 18 21 24 20 42 -6z m-1724 -69 c0 -5 16
-17 36 -25 27 -12 35 -20 32 -37 -5 -35 -42 -29 -48 8 -5 25 -7 27 -15 13 -9
-16 -12 -16 -34 1 -21 16 -22 19 -6 34 19 19 35 22 35 6z m406 -4 c-11 -8 -22
-12 -25 -9 -6 6 19 24 34 24 6 -1 1 -7 -9 -15z m44 -16 l-25 -20 25 3 c20 2
26 -2 28 -21 8 -57 -38 -47 -52 11 -5 21 -2 28 14 33 11 3 20 11 20 17 0 6 3
8 7 4 4 -4 -3 -16 -17 -27z m-4263 -1 c-3 -8 -6 -5 -6 6 -1 11 2 17 5 13 3 -3
4 -12 1 -19z m-549 3 c9 -5 11 -17 6 -34 -5 -23 -11 -27 -45 -27 -28 0 -39 4
-39 15 0 8 4 15 9 15 5 0 13 9 16 20 7 21 30 26 53 11z m172 -1 c0 -5 -5 -10
-11 -10 -5 0 -7 5 -4 10 3 6 8 10 11 10 2 0 4 -4 4 -10z m540 -60 c-10 -19
-16 -82 -25 -295 -10 -239 -17 -325 -27 -325 -5 0 -6 4 -3 10 7 12 -24 62 -35
55 -5 -3 -6 4 -3 14 3 13 12 18 24 16 12 -2 19 2 19 11 0 8 -4 13 -9 9 -6 -3
-14 3 -20 12 -9 16 -12 16 -21 3 -6 -9 -10 -10 -10 -3 0 6 5 15 10 18 8 5 7
11 -1 21 -20 24 -29 16 -29 -27 0 -24 4 -38 10 -34 6 3 10 -4 10 -17 0 -14 -3
-19 -8 -11 -4 7 -19 16 -32 22 -18 7 -20 10 -7 10 19 1 23 37 6 61 -8 12 -9 9
-5 -12 4 -18 2 -28 -5 -28 -18 0 -1 90 22 123 12 16 18 31 15 34 -3 4 -6 0 -6
-7 0 -11 -4 -10 -17 3 -17 16 -16 20 7 65 14 26 28 49 33 50 4 2 5 9 1 15 -3
7 1 4 10 -7 18 -22 46 -15 46 12 0 23 -56 72 -82 72 -24 0 -23 3 12 52 17 23
26 44 21 47 -17 11 0 58 26 70 13 6 28 9 32 7 4 -3 13 -1 21 4 19 12 34 -24
20 -50z m3990 40 c-8 -5 -17 -7 -19 -4 -3 3 1 9 9 14 8 5 17 7 19 4 3 -3 -1
-9 -9 -14z m275 10 c9 7 18 10 22 6 3 -3 1 -6 -6 -6 -7 0 -11 -8 -10 -17 4
-49 0 -53 -54 -44 -4 0 -12 11 -16 24 -11 28 14 53 36 36 9 -9 17 -8 28 1z
m-3796 -112 c10 -26 9 -28 -15 -28 -22 0 -25 3 -20 23 3 12 6 42 7 67 l1 45 8
-40 c5 -22 13 -52 19 -67z m3571 77 c7 -9 8 -15 2 -15 -5 0 -12 7 -16 15 -3 8
-4 15 -2 15 2 0 9 -7 16 -15z m-455 -31 c9 -15 12 -23 6 -20 -11 7 -35 46 -28
46 3 0 12 -12 22 -26z m-4170 -35 c8 -24 8 -24 -27 -33 -30 -7 -35 2 -18 35
14 25 37 24 45 -2z m5725 4 c0 -17 -18 -34 -39 -38 -12 -2 -19 0 -16 6 4 5 10
7 14 5 4 -3 14 4 21 15 15 20 20 23 20 12z m-190 -7 c0 -2 -7 -7 -16 -10 -8
-3 -12 -2 -9 4 6 10 25 14 25 6z m-4434 -116 c64 -131 64 -133 64 -268 l0
-127 -37 -2 c-21 0 -42 -2 -48 -3 -5 -1 -25 -2 -43 -1 l-34 1 7 228 c4 125 10
231 12 235 3 5 15 7 26 5 16 -2 31 -21 53 -68z m4789 -30 c3 -5 -1 -10 -9 -10
-8 0 -18 5 -21 10 -3 6 1 10 9 10 8 0 18 -4 21 -10z m-1938 -72 c-3 -8 -6 -5
-6 6 -1 11 2 17 5 13 3 -3 4 -12 1 -19z m1943 -18 c0 -6 -11 -8 -27 -4 -40 10
-41 14 -5 14 18 0 32 -5 32 -10z m-1060 -71 c0 -14 -17 -10 -23 5 -4 10 -1 13
9 9 7 -3 14 -9 14 -14z m550 -11 c11 -12 20 -30 20 -39 0 -18 23 -27 103 -44
17 -3 31 -15 37 -30 11 -29 8 -467 -3 -456 -4 4 -14 41 -22 82 -7 41 -30 121
-50 179 -20 58 -40 120 -45 139 -4 18 -13 38 -18 43 -16 16 4 -72 37 -167 18
-49 39 -123 47 -164 8 -40 24 -94 35 -120 28 -60 33 -101 14 -101 -7 0 -17 5
-20 10 -4 6 -23 17 -43 26 -20 8 -39 19 -42 23 -3 5 -53 32 -112 61 -60 29
-108 57 -109 64 0 6 -1 112 -2 235 l-2 223 44 -5 c37 -4 44 -2 48 14 3 10 10
19 15 19 5 0 16 7 24 15 20 19 19 19 44 -7z m-4539 -10 c29 -33 25 -97 -11
-168 -17 -33 -33 -60 -36 -60 -3 0 -3 15 0 33 3 17 6 74 7 125 2 96 8 108 40
70z m4074 12 c4 -6 10 -8 15 -5 5 3 51 -1 102 -10 51 -8 96 -15 100 -15 4 0 7
-102 8 -226 0 -212 -1 -226 -17 -218 -35 15 -276 94 -289 94 -24 0 -30 33 -24
135 5 95 6 99 30 106 l25 7 -27 1 c-16 1 -28 7 -28 14 0 7 12 20 28 29 21 14
23 18 9 18 -10 0 -16 4 -12 9 3 6 -2 14 -11 19 -9 5 -14 15 -10 21 4 6 12 9
17 5 5 -3 9 -2 8 3 -1 4 -1 11 0 16 2 11 69 8 76 -3z m-175 -4 c0 -3 -4 -8
-10 -11 -5 -3 -10 -1 -10 4 0 6 5 11 10 11 6 0 10 -2 10 -4z m-4565 -138 c-16
-256 -17 -328 -2 -328 30 0 36 29 43 191 4 90 8 166 10 168 6 7 78 -61 102
-96 19 -28 23 -45 21 -101 -1 -40 -7 -73 -16 -83 -12 -15 -10 -16 22 -13 20 1
35 -2 35 -8 0 -6 -3 -8 -7 -5 -3 4 -11 3 -17 -1 -6 -5 -40 -19 -76 -32 -36
-12 -71 -27 -78 -33 -7 -5 -15 -7 -18 -4 -4 3 -23 0 -43 -8 -44 -17 -226 -71
-264 -80 -16 -3 -26 -2 -23 3 3 5 49 22 103 37 54 16 103 33 110 39 13 11 21
100 22 247 1 83 2 87 37 132 20 26 38 47 40 47 3 0 2 -33 -1 -72z m1054 -20
c0 -21 -3 -38 -9 -38 -6 0 -10 28 -9 68 1 52 3 60 9 37 4 -16 8 -47 9 -67z
m3509 -12 c0 -17 -5 -23 -14 -19 -8 3 -14 7 -14 9 0 4 22 32 26 34 1 0 2 -11
2 -24z m-856 -32 c20 -14 20 -16 3 -10 -11 4 -32 10 -47 13 -15 3 -25 9 -23
14 8 11 41 3 67 -17z m855 -46 c-6 -3 -15 -4 -19 -2 -4 3 -5 -3 -2 -13 5 -15
4 -16 -5 -3 -9 12 -11 11 -12 -10 -1 -19 -2 -21 -6 -6 -6 22 38 69 49 52 4 -6
2 -14 -5 -18z m-4000 -18 c2 -42 -6 -54 -30 -44 -29 11 -30 38 -2 61 14 13 27
23 28 23 2 0 3 -18 4 -40z m503 -16 c0 -8 -7 -14 -15 -14 -8 0 -15 9 -15 20 0
13 5 18 15 14 8 -4 15 -12 15 -20z m3500 -21 c-1 -44 -2 -47 -15 -29 -8 11
-15 14 -15 8 0 -7 -5 -12 -11 -12 -7 0 -5 9 5 23 9 12 19 30 23 40 9 28 13 20
13 -30z m-187 -2 c-3 -11 -11 -22 -19 -25 -11 -4 -11 0 2 19 20 30 24 31 17 6z
m-3870 -42 c-23 -23 -57 -19 -67 7 -5 13 -3 13 16 -1 30 -21 45 -19 21 3 -10
9 -14 14 -9 10 5 -4 15 0 24 8 10 11 18 12 25 5 8 -8 5 -17 -10 -32z m3944 9
c-3 -7 -5 -2 -5 12 0 14 2 19 5 13 2 -7 2 -19 0 -25z m-816 -5 c13 -16 12 -17
-3 -4 -17 13 -22 21 -14 21 2 0 10 -8 17 -17z m-2532 -89 c-16 -20 -39 -18
-39 4 0 14 -2 15 -10 2 -15 -24 -12 -4 7 34 l16 36 19 -31 c15 -24 16 -34 7
-45z m3252 45 c-20 -8 -23 -6 -15 14 4 13 9 14 19 4 11 -10 10 -13 -4 -18z
m-659 -47 c11 -24 18 -46 15 -48 -3 -3 -10 9 -15 26 -6 17 -21 45 -34 63 -18
26 -19 29 -3 17 10 -8 27 -34 37 -58z m821 -32 c-10 -59 -11 -86 -4 -88 6 -2
8 -8 5 -14 -3 -5 0 -9 7 -7 32 4 39 -2 39 -36 0 -31 -3 -35 -25 -35 -25 0 -33
14 -15 25 6 3 9 14 9 23 -1 15 -2 15 -6 0 -2 -10 -9 -18 -14 -18 -6 0 -8 8 -5
18 4 12 -1 21 -17 27 -12 6 -21 18 -21 28 1 9 -2 17 -7 17 -5 0 -9 7 -9 15 0
26 -15 16 -16 -11 -2 -30 -9 -38 -23 -30 -11 7 -3 75 11 93 7 8 3 10 -14 6
-40 -9 2 16 48 28 22 6 47 19 54 29 8 11 15 18 16 17 1 -1 -5 -40 -13 -87z
m-1025 0 c1 -23 0 -23 -8 -5 -5 11 -8 36 -8 55 l0 35 8 -30 c4 -16 8 -41 8
-55z m-581 34 c3 -9 13 -14 24 -11 20 5 32 -15 23 -38 -9 -23 5 -65 21 -65 8
0 15 -4 15 -10 0 -23 19 -8 22 18 2 21 9 28 29 30 22 3 27 -2 31 -23 5 -22 0
-28 -30 -40 -26 -11 -32 -18 -24 -28 12 -14 -7 -47 -28 -47 -9 0 -8 -5 3 -18
36 -40 11 -44 -38 -6 -31 23 -33 24 -28 5 6 -25 -5 -26 -33 -3 -19 15 -23 31
-29 135 -6 114 -6 117 15 117 11 0 23 -7 27 -16z m153 -8 c0 -3 -4 -8 -10 -11
-5 -3 -10 -1 -10 4 0 6 5 11 10 11 6 0 10 -2 10 -4z m1325 -25 c3 -5 -3 -12
-12 -14 -14 -4 -12 -5 5 -6 19 -1 21 -4 13 -20 -6 -10 -7 -21 -4 -25 3 -3 3
-6 -1 -6 -3 0 -11 10 -16 23 -8 18 -10 13 -8 -24 2 -31 -1 -46 -10 -46 -6 0
-12 5 -11 11 4 33 -2 66 -11 61 -5 -3 -10 1 -10 9 0 9 -4 16 -10 16 -5 0 -10
-9 -10 -21 0 -11 -4 -17 -10 -14 -5 3 -10 -1 -10 -10 0 -9 4 -14 9 -10 5 3 12
1 16 -4 3 -5 -1 -13 -9 -18 -7 -4 -16 -17 -19 -28 -2 -11 -5 12 -6 52 -1 49 3
73 12 76 21 9 96 7 102 -2z m-898 -53 c-3 -8 -6 -5 -6 6 -1 11 2 17 5 13 3 -3
4 -12 1 -19z m-2740 -20 c-3 -8 -6 -5 -6 6 -1 11 2 17 5 13 3 -3 4 -12 1 -19z
m-587 -8 c0 -11 -4 -20 -9 -20 -4 0 -6 -11 -3 -25 3 -20 1 -24 -12 -19 -11 4
-15 13 -11 28 4 11 9 29 11 39 7 23 24 22 24 -3z m3578 -25 c-3 -3 -9 2 -12
12 -6 14 -5 15 5 6 7 -7 10 -15 7 -18z m945 7 c23 -10 61 -27 85 -37 23 -10
40 -20 38 -23 -3 -2 -19 3 -37 12 -18 9 -39 16 -48 16 -16 1 -103 50 -88 50 4
0 27 -8 50 -18z m-4617 -7 c-11 -8 -14 -15 -8 -15 9 0 9 -5 0 -20 -18 -28 -38
-25 -38 5 0 24 22 44 50 44 11 0 10 -3 -4 -14z m994 -9 c0 -2 -14 -9 -30 -15
-17 -5 -29 -7 -27 -3 2 4 7 15 10 25 5 14 11 16 27 7 11 -6 20 -12 20 -14z
m-1410 -5 c-8 -5 -26 -12 -40 -15 -24 -7 -24 -6 -6 8 11 9 29 16 40 16 17 -1
18 -2 6 -9z m-75 -21 c-3 -5 -12 -10 -18 -10 -7 0 -6 4 3 10 19 12 23 12 15 0z
m393 -24 c2 -32 0 -35 -35 -46 -21 -6 -47 -15 -58 -20 -76 -31 -145 -51 -145
-41 0 8 54 29 92 36 39 8 78 27 79 39 1 6 1 18 0 27 -2 14 30 37 54 38 6 1 12
-14 13 -33z m4702 0 c0 -2 -9 -6 -20 -9 -15 -4 -20 0 -20 14 0 17 3 18 20 9
11 -6 20 -12 20 -14z m-5160 4 c0 -5 -5 -10 -11 -10 -5 0 -7 5 -4 10 3 6 8 10
11 10 2 0 4 -4 4 -10z m3577 4 c-3 -3 -12 -4 -19 -1 -8 3 -5 6 6 6 11 1 17 -2
13 -5z m1338 -14 c-3 -5 -11 -10 -16 -10 -6 0 -7 5 -4 10 3 6 11 10 16 10 6 0
7 -4 4 -10z m-55 -10 c0 -5 -4 -10 -10 -10 -5 0 -10 5 -10 10 0 6 5 10 10 10
6 0 10 -4 10 -10z m-93 -32 c-3 -7 -5 -2 -5 12 0 14 2 19 5 13 2 -7 2 -19 0
-25z m-4557 -64 c0 -7 -66 -34 -86 -34 -24 0 -12 10 33 25 43 16 53 18 53 9z
m5366 -18 c14 -10 21 -27 22 -55 3 -37 1 -41 -19 -38 -12 1 -24 -4 -26 -13 -4
-12 -3 -12 5 -1 7 9 15 11 27 4 15 -9 14 -11 -9 -15 -20 -4 -31 0 -41 16 -21
29 -20 57 3 49 14 -5 13 -3 -3 10 l-20 16 20 1 20 1 -20 9 -20 9 20 1 20 1
-20 9 c-20 9 -20 9 0 9 11 1 30 -5 41 -13z m-216 -18 c0 -9 3 -8 10 2 5 8 12
11 16 7 11 -10 -15 -35 -34 -32 -9 1 -11 0 -4 -2 6 -3 12 -9 12 -14 0 -5 5 -9
11 -9 5 0 7 5 4 10 -9 14 8 13 23 -2 8 -8 12 -9 12 -1 0 6 -6 13 -12 16 -7 2
-10 8 -6 12 13 14 57 -49 58 -83 0 -34 -10 -43 -58 -47 -15 -1 -34 -4 -42 -7
-39 -15 -50 -17 -50 -8 0 16 -30 12 -48 -6 -15 -15 -16 -15 -23 2 -4 11 -8 30
-9 44 0 14 -9 44 -20 68 -11 23 -15 40 -10 37 6 -3 10 -1 10 6 0 8 13 10 40 6
22 -3 40 -1 40 4 0 5 18 9 40 9 25 0 40 -5 40 -12z m-4919 -11 c-1 -4 -3 -7
-6 -7 -40 0 -40 0 -25 10 16 10 32 9 31 -3z m-382 -11 c-2 -1 -19 -8 -36 -14
-37 -12 -45 -6 -10 8 22 9 54 13 46 6z m4991 -62 c0 -58 -2 -65 -17 -60 -10 3
-30 8 -45 12 -20 4 -28 12 -27 28 1 17 2 17 6 3 2 -9 9 -14 15 -11 6 4 14 0
19 -7 6 -10 9 -8 9 9 0 12 -4 22 -10 22 -5 0 -10 7 -10 15 0 8 5 15 10 15 6 0
10 5 10 10 0 19 -21 10 -30 -12 -8 -22 -9 -22 -9 4 -1 27 10 34 57 37 21 1 22
-3 22 -65z m-4687 39 c-7 -17 -6 -17 20 0 32 21 37 21 37 2 0 -8 5 -15 10 -15
6 0 10 -4 10 -8 0 -5 -7 -9 -15 -9 -8 0 -15 9 -15 19 0 16 -3 16 -20 6 -18
-12 -19 -13 -2 -20 14 -6 14 -7 -4 -7 -12 -1 -25 6 -28 15 -9 23 -7 34 4 34 5
0 6 -8 3 -17z m4577 6 c0 -5 -5 -7 -12 -3 -8 5 -9 -3 -5 -29 3 -22 1 -39 -5
-43 -7 -4 -8 -2 -4 4 4 7 3 12 -3 12 -13 0 -9 53 4 62 14 11 25 10 25 -3z
m221 -46 c1 -7 2 -19 3 -25 1 -7 5 -16 10 -19 16 -12 -12 -48 -33 -42 -18 4
-20 13 -19 75 1 70 1 70 19 47 10 -13 19 -30 20 -36z m-4827 20 c-10 -40 -14
-41 -14 -5 0 18 5 32 10 32 6 0 8 -11 4 -27z m3095 14 c6 -8 8 -17 4 -20 -7
-8 -33 11 -33 24 0 13 16 11 29 -4z m61 -7 c0 -5 -7 -7 -15 -4 -8 4 -12 10 -9
15 6 11 24 2 24 -11z m34 4 c5 -14 4 -15 -9 -4 -17 14 -19 20 -6 20 5 0 12 -7
15 -16z m1326 -25 c0 -31 -17 -39 -27 -13 -3 9 0 20 8 25 11 7 11 9 1 9 -8 0
-16 -9 -19 -20 -3 -11 -9 -20 -13 -20 -22 0 -40 14 -40 30 0 20 21 28 63 22
22 -4 27 -9 27 -33z m-4885 21 c-11 -5 -27 -9 -35 -9 -13 -1 -13 0 0 9 8 5 24
9 35 9 l20 0 -20 -9z m291 -76 c-3 -8 -16 -14 -29 -14 -13 0 -27 -4 -32 -9 -6
-6 -22 -12 -36 -14 -23 -5 -25 -2 -21 19 3 16 15 27 39 35 19 6 37 8 40 5 10
-10 33 15 35 38 0 11 3 6 5 -12 3 -19 2 -40 -1 -48z m4434 64 c0 -10 -19 -9
-45 2 -16 7 -14 9 13 7 17 -1 32 -5 32 -9z m-4461 -17 c7 -5 9 -11 5 -14 -5
-3 -15 1 -22 9 -14 16 -5 18 17 5z m3201 -21 c0 -5 -2 -10 -4 -10 -3 0 -8 5
-11 10 -3 6 -1 10 4 10 6 0 11 -4 11 -10z m-3350 -38 c0 -11 -7 -18 -21 -18
-18 0 -18 2 -5 12 9 6 13 14 9 17 -3 4 -1 7 5 7 7 0 12 -8 12 -18z m-58 -17
c0 -5 -5 -11 -11 -13 -6 -2 -11 4 -11 13 0 9 5 15 11 13 6 -2 11 -8 11 -13z
m1451 -10 c-3 -9 -8 -14 -10 -11 -3 3 -2 9 2 15 9 16 15 13 8 -4z"/>
        <path d="M2690 5971 c0 -6 5 -13 10 -16 6 -3 10 1 10 9 0 9 -4 16 -10 16 -5 0
-10 -4 -10 -9z"/>
        <path d="M2641 5954 c0 -11 3 -14 6 -6 3 7 2 16 -1 19 -3 4 -6 -2 -5 -13z"/>
        <path d="M2716 5944 c-3 -9 -2 -23 4 -32 5 -10 10 -12 11 -7 0 6 2 20 3 33 3
25 -9 30 -18 6z"/>
        <path d="M2760 5701 c0 -6 5 -13 10 -16 6 -3 10 1 10 9 0 9 -4 16 -10 16 -5 0
-10 -4 -10 -9z"/>
        <path d="M2546 4454 c-4 -9 -4 -19 -1 -22 2 -3 7 3 11 12 4 9 4 19 1 22 -2 3
-7 -3 -11 -12z"/>
        <path d="M2980 4369 c0 -5 5 -7 10 -4 6 3 10 8 10 11 0 2 -4 4 -10 4 -5 0 -10
-5 -10 -11z"/>
        <path d="M3223 4175 c1 -19 5 -35 9 -35 4 0 8 16 8 35 0 19 -4 35 -9 35 -5 0
-9 -16 -8 -35z"/>
        <path d="M3030 4030 c0 -11 2 -20 4 -20 2 0 13 -3 23 -6 17 -6 17 -6 -1 8 -10
8 -16 20 -12 26 4 7 2 12 -3 12 -6 0 -11 -9 -11 -20z"/>
        <path d="M2905 3650 c-4 -6 -11 -8 -16 -5 -5 4 -9 1 -9 -5 0 -6 -4 -9 -9 -6
-5 3 -15 -2 -22 -11 -12 -14 -12 -16 1 -8 13 8 13 7 1 -8 -10 -13 -10 -17 -1
-17 13 0 10 -44 -5 -81 -4 -10 -1 -16 9 -16 8 0 13 4 11 8 -3 4 11 14 29 23
31 15 34 20 33 56 -1 22 -6 40 -10 40 -5 0 -5 9 -2 20 7 21 1 27 -10 10z"/>
        <path d="M2556 3565 c-9 -9 -16 -20 -16 -25 0 -14 18 -21 25 -10 4 6 10 8 15
5 16 -10 22 17 8 32 -13 13 -17 12 -32 -2z"/>
        <path d="M2472 3538 c-7 -7 -12 -18 -12 -25 0 -7 -4 -13 -10 -13 -12 0 -13
-27 -1 -34 14 -9 69 14 75 31 9 21 -3 55 -16 47 -6 -4 -5 -9 3 -15 10 -6 7
-10 -11 -17 -29 -11 -38 1 -20 23 15 18 9 20 -8 3z"/>
        <path d="M3378 3653 c7 -3 16 -2 19 1 4 3 -2 6 -13 5 -11 0 -14 -3 -6 -6z"/>
        <path d="M4560 3460 l-25 -7 29 -12 c33 -13 36 -12 27 10 -4 11 -13 13 -31 9z"/>
        <path d="M4610 3461 c0 -13 45 -20 105 -16 63 4 63 4 47 14 -19 12 -152 14
-152 2z m63 -8 c-7 -2 -19 -2 -25 0 -7 3 -2 5 12 5 14 0 19 -2 13 -5z"/>
        <path d="M4738 3423 c7 -3 16 -2 19 1 4 3 -2 6 -13 5 -11 0 -14 -3 -6 -6z"/>
        <path d="M4668 3393 c6 -2 18 -2 25 0 6 3 1 5 -13 5 -14 0 -19 -2 -12 -5z"/>
        <path d="M4616 3361 c-4 -5 3 -7 14 -4 23 6 26 13 6 13 -8 0 -17 -4 -20 -9z"/>
        <path d="M4816 3355 c4 -8 10 -12 15 -9 14 8 10 24 -6 24 -9 0 -12 -6 -9 -15z"/>
        <path d="M5227 3349 c7 -7 15 -10 18 -7 3 3 -2 9 -12 12 -14 6 -15 5 -6 -5z"/>
        <path d="M4573 3325 c-15 -16 -16 -25 -5 -25 4 0 13 9 20 20 14 23 3 26 -15 5z"/>
        <path d="M5045 3312 c-4 -10 0 -12 11 -8 8 3 18 6 20 6 2 0 4 4 4 8 0 15 -29
9 -35 -6z"/>
        <path d="M5058 3283 c7 -3 16 -2 19 1 4 3 -2 6 -13 5 -11 0 -14 -3 -6 -6z"/>
        <path d="M5025 3263 c-71 -15 -68 -12 -61 -45 3 -17 3 -29 0 -25 -4 3 -13 0
-20 -8 -8 -7 -26 -23 -40 -34 -34 -27 -28 -55 12 -59 20 -2 36 4 49 18 24 26
45 25 73 -5 20 -20 27 -22 52 -14 16 6 34 17 41 25 13 16 39 19 39 4 0 -5 -4
-10 -10 -10 -5 0 -10 -7 -10 -16 0 -8 -4 -13 -9 -10 -5 4 -20 1 -33 -4 -23
-11 -23 -11 0 -6 13 2 22 0 21 -7 -3 -28 2 -35 22 -30 l22 6 -22 -29 c-20 -28
-21 -30 -3 -66 9 -21 22 -36 27 -34 6 1 11 54 13 124 3 122 3 122 -23 134 -14
6 -25 15 -25 20 0 4 -6 7 -12 6 -8 -2 -13 8 -12 27 0 17 -4 33 -10 37 -12 8
-47 9 -81 1z"/>
        <path d="M6060 3090 c0 -5 7 -10 16 -10 8 0 12 5 9 10 -3 6 -10 10 -16 10 -5
0 -9 -4 -9 -10z"/>
        <path d="M5218 3083 c6 -2 18 -2 25 0 6 3 1 5 -13 5 -14 0 -19 -2 -12 -5z"/>
        <path d="M6114 3078 c2 -12 56 -31 64 -23 11 11 -13 26 -33 21 -13 -3 -26 -1
-28 4 -3 6 -4 5 -3 -2z"/>
        <path d="M4378 3073 c7 -3 16 -2 19 1 4 3 -2 6 -13 5 -11 0 -14 -3 -6 -6z"/>
        <path d="M4360 3050 c-8 -5 -10 -10 -5 -10 6 0 17 5 25 10 8 5 11 10 5 10 -5
0 -17 -5 -25 -10z"/>
        <path d="M4495 3049 c-7 -10 51 -22 65 -14 6 4 17 1 25 -5 10 -8 15 -9 15 -2
0 19 -95 38 -105 21z"/>
        <path d="M5080 3045 c0 -8 6 -15 14 -15 22 0 28 17 10 24 -22 9 -24 8 -24 -9z"/>
        <path d="M4765 3039 c-14 -5 -6 -7 23 -7 23 0 44 4 47 8 5 9 -45 9 -70 -1z"/>
        <path d="M6001 3014 c0 -11 3 -14 6 -6 3 7 2 16 -1 19 -3 4 -6 -2 -5 -13z"/>
        <path d="M4697 3009 c-14 -8 -16 -14 -6 -25 9 -11 6 -16 -15 -24 -14 -5 -26
-14 -26 -19 0 -6 -8 -8 -17 -6 -10 3 -2 -2 17 -11 26 -12 39 -13 52 -5 9 6 30
8 46 5 33 -7 65 19 37 30 -9 3 -14 10 -10 15 8 13 -26 51 -45 51 -8 0 -23 -5
-33 -11z"/>
        <path d="M5977 2983 c-13 -12 -7 -23 13 -23 13 0 18 5 14 15 -7 16 -17 19 -27
8z"/>
        <path d="M4570 2970 c0 -5 5 -10 11 -10 5 0 7 5 4 10 -3 6 -8 10 -11 10 -2 0
-4 -4 -4 -10z"/>
        <path d="M6154 2959 c-3 -6 -2 -15 3 -20 13 -13 43 -1 43 17 0 16 -36 19 -46
3z"/>
        <path d="M4291 2944 c0 -11 3 -14 6 -6 3 7 2 16 -1 19 -3 4 -6 -2 -5 -13z"/>
        <path d="M6105 2940 c-3 -5 3 -10 14 -10 12 0 21 5 21 10 0 6 -6 10 -14 10 -8
0 -18 -4 -21 -10z"/>
        <path d="M4248 2933 c7 -3 16 -2 19 1 4 3 -2 6 -13 5 -11 0 -14 -3 -6 -6z"/>
        <path d="M4833 2874 c-9 -23 18 -36 38 -18 12 11 18 12 21 4 2 -8 8 -7 17 4
12 14 12 16 -2 11 -8 -4 -18 -2 -22 4 -10 17 -45 13 -52 -5z"/>
        <path d="M5090 2880 c0 -5 -7 -10 -15 -10 -8 0 -15 -4 -15 -9 0 -5 29 -8 65
-8 36 0 65 4 65 9 0 4 -11 8 -25 8 -34 0 -38 1 -57 11 -12 6 -18 6 -18 -1z"/>
        <path d="M5820 2844 c0 -8 5 -12 10 -9 6 4 8 11 5 16 -9 14 -15 11 -15 -7z"/>
        <path d="M5116 2831 c-8 -13 4 -42 15 -35 5 3 9 -3 9 -13 0 -14 2 -15 9 -5 5
8 4 24 -3 38 -12 25 -21 30 -30 15z"/>
        <path d="M5763 2814 c3 -17 0 -28 -10 -31 -8 -3 -19 -17 -24 -30 -8 -21 -12
-23 -24 -13 -8 6 -19 9 -25 5 -15 -9 -1 -28 16 -21 9 3 20 -8 31 -32 11 -26
17 -32 20 -20 2 9 -1 27 -7 39 -10 17 -9 23 1 30 7 4 17 5 22 2 5 -3 14 1 19
8 7 11 11 11 15 2 2 -7 12 -13 20 -13 8 0 13 6 10 13 -21 51 -21 51 -1 42 10
-4 27 -8 36 -9 18 0 19 -16 3 -28 -6 -5 -4 -12 5 -18 19 -13 33 -13 25 0 -3 6
-2 10 3 10 6 0 15 -13 21 -30 5 -16 15 -30 22 -30 6 0 20 -11 31 -25 11 -14
26 -25 35 -25 9 0 13 -6 10 -14 -7 -19 18 -40 38 -32 21 8 19 28 -2 24 -12 -2
-19 4 -21 20 -3 16 -10 22 -28 22 -21 0 -30 14 -21 36 1 4 -8 10 -20 15 -16 6
-23 17 -23 34 0 15 -4 24 -9 21 -5 -4 -7 4 -3 16 4 18 2 20 -16 16 -23 -6 -31
7 -9 15 6 3 -12 4 -41 2 -29 -1 -64 4 -78 12 -25 13 -26 12 -21 -13z"/>
        <path d="M5062 2800 c0 -14 2 -19 5 -12 2 6 2 18 0 25 -3 6 -5 1 -5 -13z"/>
        <path d="M4881 2761 c-9 -6 -11 -15 -6 -27 7 -16 9 -17 12 -3 2 9 14 21 26 27
21 10 21 11 2 11 -11 0 -26 -3 -34 -8z"/>
        <path d="M5040 2760 l-25 -8 28 -1 c15 -1 27 4 27 9 0 6 -1 10 -2 9 -2 -1 -14
-5 -28 -9z"/>
        <path d="M4978 2753 c7 -3 16 -2 19 1 4 3 -2 6 -13 5 -11 0 -14 -3 -6 -6z"/>
        <path d="M5610 2695 c0 -8 5 -15 10 -15 6 0 13 0 17 0 4 0 8 6 9 15 1 9 -5 15
-17 15 -10 0 -19 -7 -19 -15z"/>
        <path d="M5500 2635 c-6 -8 -10 -21 -8 -30 3 -14 5 -14 25 0 13 9 20 22 17 30
-8 19 -18 19 -34 0z"/>
        <path d="M5560 2633 c0 -5 4 -14 9 -21 6 -10 10 -9 14 7 3 14 0 21 -9 21 -8 0
-14 -3 -14 -7z"/>
        <path d="M5155 2620 c3 -5 8 -10 11 -10 2 0 4 5 4 10 0 6 -5 10 -11 10 -5 0
-7 -4 -4 -10z"/>
        <path d="M5182 2571 c7 -11 16 -17 20 -14 10 5 -10 33 -23 33 -5 0 -4 -9 3
-19z"/>
        <path d="M5376 2581 c-4 -5 -2 -12 3 -15 5 -4 12 -2 15 3 4 5 2 12 -3 15 -5 4
-12 2 -15 -3z"/>
        <path d="M5447 2583 c-7 -12 11 -53 23 -53 11 0 13 20 4 44 -6 17 -20 21 -27
9z"/>
        <path d="M6065 2580 c-9 -14 5 -32 20 -26 8 3 19 -2 26 -10 8 -10 15 -11 25
-3 18 15 6 41 -16 34 -10 -3 -21 -1 -25 5 -8 13 -22 13 -30 0z"/>
        <path d="M5235 2550 c28 -12 47 -12 40 0 -3 6 -18 10 -33 9 -24 0 -25 -1 -7
-9z"/>
        <path d="M4517 2510 c-3 -13 0 -20 8 -20 21 0 27 16 11 29 -11 9 -15 7 -19 -9z"/>
        <path d="M4485 2510 c-3 -5 -1 -10 4 -10 6 0 11 5 11 10 0 6 -2 10 -4 10 -3 0
-8 -4 -11 -10z"/>
        <path d="M4492 2450 c0 -19 2 -27 5 -17 2 9 2 25 0 35 -3 9 -5 1 -5 -18z"/>
        <path d="M4766 2413 c-8 -21 5 -43 25 -43 12 0 19 7 19 20 0 11 5 20 10 20 6
0 10 5 10 10 0 15 -59 8 -64 -7z"/>
        <path d="M4870 2419 c-11 -8 -12 -12 -2 -16 6 -2 12 -13 12 -24 0 -10 5 -19
10 -19 11 0 11 13 2 47 -6 18 -10 20 -22 12z"/>
        <path d="M1150 3240 c0 -5 5 -10 10 -10 6 0 10 5 10 10 0 6 -4 10 -10 10 -5 0
-10 -4 -10 -10z"/>
        <path d="M3260 2894 c0 -17 22 -14 28 4 2 7 -3 12 -12 12 -9 0 -16 -7 -16 -16z"/>
        <path d="M648 2693 c7 -3 16 -2 19 1 4 3 -2 6 -13 5 -11 0 -14 -3 -6 -6z"/>
        <path d="M1669 2523 c-13 -17 -13 -17 6 -3 11 8 22 16 24 17 2 2 0 3 -6 3 -6
0 -17 -8 -24 -17z"/>
        <path d="M1155 2470 c-3 -5 -2 -10 4 -10 5 0 13 5 16 10 3 6 2 10 -4 10 -5 0
-13 -4 -16 -10z"/>
        <path d="M890 2450 c0 -5 5 -10 10 -10 6 0 10 5 10 10 0 6 -4 10 -10 10 -5 0
-10 -4 -10 -10z"/>
        <path d="M1063 2453 c9 -2 25 -2 35 0 9 3 1 5 -18 5 -19 0 -27 -2 -17 -5z"/>
        <path d="M336 2442 c-3 -6 -1 -14 5 -17 15 -10 25 3 12 16 -7 7 -13 7 -17 1z"/>
        <path d="M858 2443 c7 -3 16 -2 19 1 4 3 -2 6 -13 5 -11 0 -14 -3 -6 -6z"/>
        <path d="M356 2402 c-3 -5 8 -9 25 -9 19 0 25 3 17 9 -17 10 -35 10 -42 0z"/>
        <path d="M4146 2675 c-4 -10 1 -15 16 -15 17 0 18 2 8 15 -7 8 -14 15 -15 15
-2 0 -5 -7 -9 -15z"/>
        <path d="M3561 2604 c0 -11 3 -14 6 -6 3 7 2 16 -1 19 -3 4 -6 -2 -5 -13z"/>
        <path d="M3711 2516 c-8 -14 -17 -24 -20 -22 -3 2 -12 -2 -19 -10 -15 -17 -8
-18 20 -3 16 9 23 8 29 -2 7 -12 11 -11 19 1 13 20 12 23 -3 44 -12 16 -14 16
-26 -8z m29 -16 c0 -5 -4 -10 -10 -10 -5 0 -10 5 -10 10 0 6 5 10 10 10 6 0
10 -4 10 -10z"/>
        <path d="M3790 2480 c-8 -5 -12 -11 -10 -14 3 -2 14 2 24 10 22 15 10 19 -14
4z"/>
        <path d="M900 806 c0 -2 7 -7 16 -10 8 -3 12 -2 9 4 -6 10 -25 14 -25 6z"/>
        <path d="M5220 625 c0 -8 4 -15 10 -15 5 0 7 7 4 15 -4 8 -8 15 -10 15 -2 0
-4 -7 -4 -15z"/>
        <path d="M731 634 c0 -11 3 -14 6 -6 3 7 2 16 -1 19 -3 4 -6 -2 -5 -13z"/>
        <path d="M5025 531 c-3 -6 1 -11 9 -11 9 0 16 -4 16 -9 0 -5 -10 -7 -22 -3
-14 3 -19 2 -14 -7 4 -6 12 -9 17 -6 11 7 19 -11 22 -50 4 -45 22 -39 24 7 1
28 -2 37 -8 27 -7 -11 -9 -11 -9 4 0 9 5 17 10 17 6 0 10 5 10 12 0 6 -3 8 -7
5 -3 -4 -14 0 -24 9 -11 10 -19 12 -24 5z"/>
        <path d="M3464 378 c1 -7 7 -22 14 -33 12 -19 13 -19 7 3 -4 13 -2 22 4 22 6
0 11 5 11 10 0 6 -9 10 -19 10 -11 0 -18 -6 -17 -12z"/>
        <path d="M5650 150 c0 -6 7 -10 15 -10 8 0 15 2 15 4 0 2 -7 6 -15 10 -8 3
-15 1 -15 -4z"/>
        <path d="M5418 193 c7 -3 16 -2 19 1 4 3 -2 6 -13 5 -11 0 -14 -3 -6 -6z"/>
        <path d="M5320 183 c8 -3 24 -10 35 -15 20 -9 20 -9 1 6 -11 9 -27 16 -35 15
-14 0 -14 -1 -1 -6z"/>
        <path d="M5340 135 c0 -8 2 -15 4 -15 2 0 6 7 10 15 3 8 1 15 -4 15 -6 0 -10
-7 -10 -15z"/>
        <path d="M5431 118 c-11 -18 -11 -20 4 -15 13 6 15 2 10 -16 -5 -18 -4 -19 5
-5 5 9 7 25 2 37 l-7 21 -14 -22z"/>
        <path d="M5470 130 c0 -5 5 -10 11 -10 7 0 9 -10 5 -26 -6 -22 -4 -25 9 -20 9
3 21 6 26 6 5 0 9 5 9 11 0 5 -4 7 -10 4 -5 -3 -10 -2 -10 4 0 5 5 13 10 16 6
4 7 11 4 17 -4 6 -10 5 -16 -3 -7 -11 -11 -11 -15 -1 -6 14 -23 16 -23 2z"/>
        <path d="M5320 75 c0 -8 2 -15 4 -15 2 0 6 7 10 15 3 8 1 15 -4 15 -6 0 -10
-7 -10 -15z"/>
        <path d="M5405 80 c4 -6 -8 -11 -27 -11 -29 -1 -28 -2 12 -9 25 -4 47 -6 49
-4 2 2 -1 4 -7 4 -6 0 -9 7 -6 15 4 10 0 15 -11 15 -9 0 -13 -4 -10 -10z"/>
        <path d="M5110 147 c0 -14 4 -28 9 -31 5 -4 8 5 6 19 -3 35 -15 44 -15 12z"/>
        <path d="M825 590 c-3 -5 -1 -10 4 -10 6 0 11 5 11 10 0 6 -2 10 -4 10 -3 0
-8 -4 -11 -10z"/>
        <path d="M1458 433 c-10 -2 -18 -11 -18 -19 0 -8 -4 -12 -10 -9 -5 3 -10 -1
-10 -9 0 -9 -5 -16 -12 -16 -6 0 -9 -2 -6 -5 9 -9 88 26 82 36 -3 6 5 7 20 3
16 -4 26 -2 26 5 0 6 -7 8 -15 5 -8 -4 -15 -1 -15 5 0 11 -11 12 -42 4z"/>
        <path d="M1128 185 c-32 -13 -83 -31 -115 -40 -32 -9 -76 -26 -98 -37 -22 -12
-41 -20 -43 -19 -1 2 -33 -9 -70 -23 -37 -13 -76 -26 -87 -28 -11 -2 -21 -11
-23 -20 -3 -15 14 -17 177 -18 108 0 181 4 181 9 0 5 10 11 22 13 12 2 23 9
26 17 3 9 0 11 -9 6 -7 -5 -23 -9 -35 -10 -17 0 -20 3 -13 12 6 7 7 18 3 24
-5 8 -3 10 7 4 8 -5 5 2 -6 15 -11 13 -15 20 -8 17 6 -4 24 -2 39 3 20 8 29 8
34 -1 6 -8 9 -7 13 2 3 8 6 0 6 -17 1 -16 -3 -34 -8 -40 -5 -5 -12 -19 -16
-31 -6 -20 -3 -23 24 -23 29 0 31 3 31 36 0 21 -4 33 -10 29 -5 -3 -10 -1 -10
4 0 6 4 11 10 11 5 0 8 6 6 13 -1 6 -1 9 1 5 5 -8 63 24 63 36 0 4 -7 5 -15 2
-43 -17 -49 -17 -25 2 24 20 36 72 16 72 -6 -1 -37 -12 -68 -25z"/>
        <path d="M6380 105 c0 -63 4 -105 10 -105 6 0 10 42 10 105 0 63 -4 105 -10
105 -6 0 -10 -42 -10 -105z"/>
        <path d="M1346 142 c-26 -16 -29 -24 -33 -80 -4 -55 -3 -62 14 -62 32 0 43 21
43 86 0 41 4 64 13 67 6 3 8 6 2 6 -5 1 -23 -7 -39 -17z"/>
        <path d="M5812 40 c-8 -13 -8 -20 -2 -20 6 0 13 7 17 15 9 24 -1 27 -15 5z"/>
        <path d="M1434 22 c3 -6 0 -13 -6 -16 -7 -3 3 -4 22 -3 40 2 43 20 4 25 -15 2
-24 -1 -20 -6z"/>
    </g>
</svg>
